<svg xmlns="http://www.w3.org/2000/svg" xmlns:xlink="http://www.w3.org/1999/xlink" viewBox="0 0 613.56 415.45"><defs><style>.cls-1{isolation:isolate;}.cls-2{fill:url(#linear-gradient);}.cls-3{fill:url(#linear-gradient-2);}.cls-4{fill:url(#linear-gradient-3);}.cls-5{fill:#c1bed7;}.cls-27,.cls-6{fill:#fff;}.cls-7{fill:#dfdeee;}.cls-8{fill:#0797a7;}.cls-9{fill:#0cc3be;}.cls-10{fill:#fd7658;}.cls-11{fill:#f88859;}.cls-12{fill:#de624c;}.cls-13{fill:#fda859;}.cls-14{fill:#fcc700;}.cls-15{fill:#343c4b;}.cls-16{fill:#ff7d6f;}.cls-17{fill:#ffa07f;}.cls-18{fill:#ffbf90;}.cls-19{fill:#456997;}.cls-20{fill:#414c5b;}.cls-21{fill:#698bb1;}.cls-22{fill:#254f79;}.cls-23{fill:#495969;}.cls-24{fill:#fc5b68;}.cls-25{fill:#cf4a57;}.cls-26{mix-blend-mode:multiply;fill:url(#linear-gradient-4);}.cls-27{font-size:19.99px;font-family:MyriadPro-Regular, Myriad Pro;}</style><linearGradient id="linear-gradient" x1="377.91" y1="182" x2="377.91" y2="504.5" gradientUnits="userSpaceOnUse"><stop offset="0" stop-color="#dfdeee"/><stop offset="1" stop-color="#c1bed7"/></linearGradient><linearGradient id="linear-gradient-2" x1="151.16" y1="149.73" x2="151.16" y2="472.24" xlink:href="#linear-gradient"/><linearGradient id="linear-gradient-3" x1="278.11" y1="149.73" x2="278.11" y2="472.24" xlink:href="#linear-gradient"/><linearGradient id="linear-gradient-4" x1="355.54" y1="189.77" x2="355.54" y2="261.91" gradientUnits="userSpaceOnUse"><stop offset="0" stop-color="#e1e0f0" stop-opacity="0"/><stop offset="1" stop-color="#c3c0d9"/></linearGradient></defs><title>autodebet</title><g class="cls-1"><g id="OBJECTS"><path class="cls-2" d="M673,286.9C659.36,259,629.09,245.1,607.78,223c-24.47-25.38-36.29-60.59-51.06-93.06S520.9,64.48,488.22,53.1c-29-10.11-60.52-.91-90.89-3.9C349.88,44.54,308.27,16.91,263.38,44,208,77.46,162,126.52,127.89,182.64c-14.29,23.46-31.71,53.51-42.8,84.87-11.81,33.42-16.42,68.34-2.36,98.4C105.24,414,150,421.24,195.24,411.42c52-11.28,105.73-14.95,158.58-6.7,40.34,6.31,80.08,18.84,120,25.37-17.3,1.87-28,4.42-28,7.23,0,5.74,44.45,10.4,99.27,10.4s99.27-4.66,99.27-10.4c0-4.74-30.3-8.74-71.72-10,4.6-1.3,9.21-2.79,13.84-4.52a217.89,217.89,0,0,0,35.58-17.07c2.69-1.62,5.35-3.29,8-5h0a3.62,3.62,0,0,0,.41-.27c.78-.52,1.56-1.05,2.33-1.59q3.54-2.44,7-5.06c1.48-1.14,2.92-2.29,4.36-3.48.81-.66,1.6-1.33,2.4-2,1.4-1.19,2.76-2.41,4.11-3.66.77-.71,1.52-1.43,2.27-2.16q3.65-3.53,6.93-7.28c.94-1.08,1.87-2.17,2.76-3.26a89.58,89.58,0,0,0,14.86-25.55C683.9,328.71,683.71,308.77,673,286.9Z" transform="translate(-68.22 -32.27)"/><ellipse class="cls-3" cx="151.16" cy="394.5" rx="42.47" ry="6.24"/><ellipse class="cls-4" cx="278.11" cy="389.6" rx="60.62" ry="9.42"/><rect class="cls-5" x="184.05" y="33.94" width="32.8" height="15.36"/><rect class="cls-5" x="203.62" y="54.84" width="32.8" height="15.36"/><path class="cls-6" d="M235.48,103a26.37,26.37,0,1,0,26.37,26.36A26.39,26.39,0,0,0,235.48,103Zm2.06,4.53c2.85,1.17,5.34,4.7,7,9.51a45.16,45.16,0,0,1-7,.79Zm-4.11,10.3a45.3,45.3,0,0,1-7-.79c1.61-4.82,4.1-8.34,7-9.51Zm0,4.12v5.36h-8.78a41.27,41.27,0,0,1,.78-6.29A49.25,49.25,0,0,0,233.43,121.9Zm0,9.47v5.37a49.66,49.66,0,0,0-8,.92,41.43,41.43,0,0,1-.78-6.29Zm0,9.48v10.29c-2.85-1.17-5.34-4.69-6.94-9.5A45,45,0,0,1,233.43,140.85Zm4.11,0a45.32,45.32,0,0,1,6.94.79c-1.6,4.81-4.09,8.33-6.94,9.5Zm0-4.11v-5.37h8.78a42.74,42.74,0,0,1-.78,6.29A49.79,49.79,0,0,0,237.54,136.74Zm0-9.48V121.9a49.12,49.12,0,0,0,8-.93,41.27,41.27,0,0,1,.78,6.29Zm-17,0h-7.22a22.32,22.32,0,0,1,3-9.31,29.32,29.32,0,0,0,5.06,2A43.91,43.91,0,0,0,220.55,127.26Zm0,4.11a43.91,43.91,0,0,0,.89,7.29,28.89,28.89,0,0,0-5.05,2,22.19,22.19,0,0,1-3.06-9.31Zm29.87,0h7.22a22.23,22.23,0,0,1-3,9.3,30.49,30.49,0,0,0-5.06-2A43.91,43.91,0,0,0,250.42,131.37Zm0-4.11a43.91,43.91,0,0,0-.89-7.29,30.14,30.14,0,0,0,5.06-2,22.23,22.23,0,0,1,3,9.3Zm1.72-12.66a26.5,26.5,0,0,1-3.67,1.4,27.81,27.81,0,0,0-3.07-6.58A22.5,22.5,0,0,1,252.14,114.6Zm-26.58-5.18A28.19,28.19,0,0,0,222.5,116a27.84,27.84,0,0,1-3.67-1.4A22.42,22.42,0,0,1,225.56,109.42ZM218.84,144a25.88,25.88,0,0,1,3.66-1.4,28.11,28.11,0,0,0,3.06,6.57A22.22,22.22,0,0,1,218.84,144Zm26.56,5.17a27.73,27.73,0,0,0,3.07-6.57,25.88,25.88,0,0,1,3.66,1.4A22.14,22.14,0,0,1,245.4,149.2Z" transform="translate(-68.22 -32.27)"/><rect class="cls-7" x="145.71" y="348.27" width="32.8" height="15.36" transform="translate(256 679.63) rotate(180)"/><rect class="cls-7" x="106.58" y="348.27" width="32.8" height="15.36" transform="translate(177.74 679.63) rotate(180)"/><rect class="cls-7" x="126.14" y="369.17" width="32.8" height="15.36" transform="translate(216.87 721.43) rotate(180)"/><path class="cls-8" d="M542.71,349.11l-15.14.94,11.18,3.21c-4,3.95-7.17,7-11.92,11.06l-22-1.87,16.81,6.4a116.61,116.61,0,0,1-14.34,10.63c-9.68-2.62-20.12-4.86-20.12-4.86l12.92,9.29c-7.32,4.15-14.81,7.35-22.19,8.85-1.19.24-.05,0-1.19.24l-13.51-4.47,5.75,5.78c-31.12,4.2-39.68-7.28-39.68-7.28a17.23,17.23,0,0,1,.31-1.73,33,33,0,0,1,1.06-3.49c2-5.72,7.06-15.74,19.43-28.36l.82,10.63,4.2-13.71c1.14-.84,2.3-1.7,3.53-2.53,3.92-2.74,3.16-2.82,7.93-4.75l1,14.82,5.85-17.71c2.83-1.09,5.78-2.06,8.78-2.91l-2.28,14.17,9.29-15.78A99.43,99.43,0,0,1,502.81,333l-2.54,14.72,10.32-15.49a104.87,104.87,0,0,1,16.11-1.08L523,343.46l9.83-12.82c12.75,0,25.64.93,25.64.93A213,213,0,0,1,542.71,349.11Z" transform="translate(-68.22 -32.27)"/><path class="cls-9" d="M509.35,287.53l-9.69,7.84,9-3.18c-.78,4.54-1.49,8.08-2.71,13.09l-15.66,9.26,14.31-3.73a95.56,95.56,0,0,1-4.53,14c-7.73,2.86-15.79,6.34-15.79,6.34l13.08.06a63.51,63.51,0,0,1-10.64,16.51c-.68.72,0,.05-.68.72l-11.18,3.45,6.6,1.13c-18.84,17.66-30,14-30,14a13,13,0,0,1-.61-1.31,25.68,25.68,0,0,1-1-2.84c-1.37-4.79-2.77-13.91-.5-28.26l5.61,6.73-3.72-11.19c.36-1.1.73-2.23,1.15-3.38,1.33-3.7.78-3.38,3.05-7l7.74,9.45-4.53-14.65c1.38-2.08,2.89-4.13,4.5-6.14l5.22,10.58-1.29-15a83,83,0,0,1,7.87-8.28l5.32,11.07-.48-15.3a87.08,87.08,0,0,1,10.28-8.4l3.35,10,.47-13.26c8.52-6.1,17.61-11.61,17.61-11.61A176.16,176.16,0,0,1,509.35,287.53Z" transform="translate(-68.22 -32.27)"/><path class="cls-8" d="M75.7,279.76l13.53,6.86-11.54-1.48c2.08,5.19,3.83,9.22,6.56,14.88l21,7-18-.79a115.16,115.16,0,0,0,9,15.45c9.92,1.43,20.39,3.51,20.39,3.51l-15.54,3.41a77.51,77.51,0,0,0,16.86,16.92c1,.69,0,.05,1,.69l14.18,1.25-7.56,3c26.9,16.2,39.3,9.05,39.3,9.05a14,14,0,0,0,.4-1.72,31.51,31.51,0,0,0,.42-3.62c.41-6.05-.24-17.25-6.6-33.74l-5,9.43,1.57-14.25c-.7-1.22-1.43-2.46-2.23-3.72-2.52-4.07-1.78-3.83-5.4-7.5l-6.79,13.21,1.65-18.58c-2.17-2.12-4.49-4.17-6.92-6.15l-3.51,13.91-2.29-18.16a97.51,97.51,0,0,0-11.47-7.84l-3.51,14.52L111.87,277a105.38,105.38,0,0,0-14.37-7.37l-1.43,12.75-3.94-15.66c-11.7-5.07-23.91-9.3-23.91-9.3A215.15,215.15,0,0,0,75.7,279.76Z" transform="translate(-68.22 -32.27)"/><path class="cls-9" d="M93,186.35A27.61,27.61,0,0,1,98,205.92c.38,1.15.8,2.47,1.28,4a37,37,0,0,1,12.2-15.38,27.75,27.75,0,0,1-11.81,16.58c.79,2.44,1.7,5.24,2.76,8.36q.73,2.16,1.54,4.52c.25.74.53,1.49.8,2.25a48.24,48.24,0,0,1,20.15-20.16,36.29,36.29,0,0,1-20,20.71c.25.67.49,1.34.74,2,1.17,3.36,2.56,6.86,4,10.57.65,1.67,1.34,3.36,2,5.08,4.33-10.76,12.29-19.75,21.88-26.22A44,44,0,0,1,112.37,246c1.65,4,3.41,8.12,5.29,12.3l.16.11-.11,0c.64,1.43,1.3,2.87,2,4.32.07.14.14.28.2.42a49.69,49.69,0,0,1,26.06-28.47c-4.87,12.52-14.09,22.85-25.24,30.2,3.42,7.19,6.85,13.82,10.07,19.73l.8,1.44c2.66-15.92,12.58-31,26.07-39.49-3.67,16-13.1,30-25.39,40.69,1.25,2.24,2.46,4.4,3.66,6.36.81,1.37,1.6,2.73,2.36,4l2.23,3.58.06.09c4.36-14.73,15.4-27.89,29.06-34.43-5.17,14.67-15.52,26.94-28.2,35.79,5.17,8.18,8.49,12.81,8.39,13.33-.07.34-2.72-2.51-7-8.34-11.47,5.57-24.61,6.8-37.13,4.65a46.29,46.29,0,0,1,36.41-5.64l-2.13-3-.09.06s0-.09,0-.14l-.12-.17-2.34-3.46c-.81-1.23-1.63-2.56-2.48-3.91l-.94-1.48c-15.38,4.7-32,3.77-47.23-1.21a59.37,59.37,0,0,1,46-.87c-1-1.72-2.08-3.53-3.17-5.39q-2.07-3.65-4.2-7.67c-16.17,1.89-32.52-2.13-46.71-10a59.33,59.33,0,0,1,45.65,7.95c-2.06-3.95-4.15-8.15-6.22-12.57-.92-2-1.82-4-2.69-6-13.11,2-26.59-.58-38.52-6.3a49.85,49.85,0,0,1,37.44,3.83c-2-4.69-3.88-9.28-5.58-13.7a43.85,43.85,0,0,1-30.86-15.48A56.9,56.9,0,0,1,107.77,240c-1.3-3.56-2.56-6.95-3.62-10.2-.57-1.73-1.15-3.39-1.67-5l-.61-2a22.65,22.65,0,0,1-20.09-8.39,29,29,0,0,1,19.58,6.74c-.11-.33-.21-.68-.31-1-1-3.12-1.75-5.92-2.42-8.38l0,0a.14.14,0,0,0,0-.06q-.15-.58-.3-1.14a27.57,27.57,0,0,1-16.24-12,35.85,35.85,0,0,1,15.75,10.13c-.22-.83-.41-1.58-.58-2.29A36.87,36.87,0,0,1,93,186.35Z" transform="translate(-68.22 -32.27)"/><path class="cls-9" d="M146.54,118.13a27.67,27.67,0,0,0,18.85,7.3l3.78,1.73a37,37,0,0,0-16.7,10.33,27.71,27.71,0,0,0,17.85-9.81c2.33,1.07,5,2.31,8,3.72l4.3,2,2.14,1.07a48.22,48.22,0,0,0-22.37,17.66,36.26,36.26,0,0,0,22.89-17.4l1.94,1c3.2,1.56,6.51,3.34,10,5.17q2.35,1.28,4.8,2.62c-11.19,3.05-21.05,9.91-28.6,18.68a44,44,0,0,0,30.06-17.87c3.78,2.1,7.67,4.33,11.6,6.68l.08.18s0-.07,0-.11l4.06,2.45.39.25a49.72,49.72,0,0,0-31.31,22.56c13-3.38,24.33-11.33,32.93-21.55,6.75,4.24,12.93,8.41,18.43,12.3l1.33,1c-16.11.78-32.29,8.87-42.25,21.29,16.28-1.79,31.33-9.52,43.36-20.48,2.09,1.51,4.09,3,5.89,4.37,1.28,1,2.53,1.91,3.7,2.82l3.29,2.63.09.07c-15.14,2.61-29.5,12-37.59,24.85,15.18-3.43,28.57-12.27,38.83-23.84,7.52,6.09,11.74,9.93,12.27,9.88.34,0-2.18-3-7.47-7.89,6.87-10.74,9.62-23.65,8.94-36.33a46.37,46.37,0,0,0-9.85,35.5c-.85-.78-1.76-1.6-2.74-2.46l.07-.09-.15,0-.16-.15-3.15-2.72c-1.13-.94-2.35-1.91-3.6-2.92-.44-.37-.9-.74-1.37-1.1,6.47-14.73,7.48-31.35,4.31-47.06A59.37,59.37,0,0,0,247.26,170c-1.59-1.22-3.26-2.48-5-3.78-2.25-1.65-4.64-3.34-7.13-5.07,3.76-15.83,1.67-32.54-4.46-47.54a59.42,59.42,0,0,0,2.58,46.27c-3.68-2.51-7.61-5.08-11.76-7.65q-2.82-1.72-5.63-3.37c3.56-12.78,2.53-26.47-1.76-39a49.82,49.82,0,0,0-.56,37.63c-4.42-2.54-8.77-4.93-12.95-7.13A44,44,0,0,0,188.83,108a56.78,56.78,0,0,0,9.22,31.13c-3.39-1.71-6.6-3.35-9.71-4.78-1.65-.78-3.23-1.54-4.78-2.24l-1.91-.85a22.66,22.66,0,0,0-6-20.93,29,29,0,0,0,4.41,20.23l-1-.43c-3-1.3-5.68-2.42-8-3.37l0,0-.06,0-1.09-.44a27.6,27.6,0,0,0-10-17.53,35.83,35.83,0,0,0,8.23,16.83c-.79-.31-1.52-.59-2.21-.84A36.75,36.75,0,0,0,146.54,118.13Z" transform="translate(-68.22 -32.27)"/><path class="cls-10" d="M470,187.51v196a11.28,11.28,0,0,1-.35,2.87,11.8,11.8,0,0,1-11.43,8.92H145.51a11.78,11.78,0,0,1-11.77-11.79v-196a11.77,11.77,0,0,1,11.77-11.78h312.7A11.77,11.77,0,0,1,470,187.51Z" transform="translate(-68.22 -32.27)"/><path class="cls-11" d="M470,187.51V352.72c-20.84-2.51-41.46-9.38-57.41-22.89-17.65-14.94-28.59-39-23.86-61.6-12,31.84-50.7,48.46-84,41.56s-60.25-33-75.48-63.46c-8.06-16.09-20.14-45.11-21.85-70.6H458.21A11.77,11.77,0,0,1,470,187.51Z" transform="translate(-68.22 -32.27)"/><path class="cls-12" d="M469.64,386.4a11.8,11.8,0,0,1-11.43,8.92H145.51a11.78,11.78,0,0,1-11.77-11.79V359a43.36,43.36,0,0,0,7.29,8.29c12.34,10.83,29.41,14.88,45.84,14.8s32.55-3.89,48.66-7a584.13,584.13,0,0,1,156.93-8.69C418.94,368.56,447.05,373.53,469.64,386.4Z" transform="translate(-68.22 -32.27)"/><rect class="cls-13" x="93.24" y="172.09" width="50.22" height="50.22" rx="5.55" ry="5.55"/><rect class="cls-14" x="95.38" y="174.23" width="45.95" height="45.95" rx="4.47" ry="4.47"/><path class="cls-13" d="M194.8,245.5H178.35a4.87,4.87,0,0,1-4.87-4.86V218.3a4.87,4.87,0,0,1,4.87-4.86H194.8a4.87,4.87,0,0,1,4.87,4.86v22.34A4.87,4.87,0,0,1,194.8,245.5Zm-16.45-27.79a.59.59,0,0,0-.59.59v22.34a.58.58,0,0,0,.59.58H194.8a.58.58,0,0,0,.59-.58V218.3a.59.59,0,0,0-.59-.59Z" transform="translate(-68.22 -32.27)"/><rect class="cls-13" x="95.38" y="187.05" width="12.02" height="4.27"/><rect class="cls-13" x="95.38" y="195.06" width="12.02" height="4.27"/><rect class="cls-13" x="95.38" y="203.08" width="12.02" height="4.27"/><rect class="cls-13" x="129.31" y="187.05" width="12.02" height="4.27"/><rect class="cls-13" x="129.31" y="195.06" width="12.02" height="4.27"/><rect class="cls-13" x="129.31" y="203.08" width="12.02" height="4.27"/><path class="cls-6" d="M165.54,317.38v9h-2.35V319.3h-1.73v-1.92Z" transform="translate(-68.22 -32.27)"/><path class="cls-6" d="M173.45,317.38v9H171.1V319.3h-1.73v-1.92Z" transform="translate(-68.22 -32.27)"/><path class="cls-6" d="M181.69,316l-4.15,11.8h-1.92l4.15-11.8Z" transform="translate(-68.22 -32.27)"/><path class="cls-6" d="M185.38,320c0-.48-.38-.77-1-.77a4.26,4.26,0,0,0-2.49,1.15l-.88-1.74a6.34,6.34,0,0,1,3.72-1.35c1.82,0,3.14.94,3.14,2.37a4.89,4.89,0,0,1-1.75,3l-1.84,1.84h3.84v1.89h-6.84v-1.55l3.26-3.36A2.72,2.72,0,0,0,185.38,320Z" transform="translate(-68.22 -32.27)"/><path class="cls-6" d="M195.89,323.53c0,1.73-1.42,2.94-3.65,2.94a6.15,6.15,0,0,1-3.54-1.1l1-1.81a3.35,3.35,0,0,0,2.41,1.11c1,0,1.53-.41,1.53-1.11s-.55-1.09-1.55-1.09h-1.51v-1.26l2.1-2h-3.46v-1.81h6.28v1.36L193,321l.45.06A2.52,2.52,0,0,1,195.89,323.53Z" transform="translate(-68.22 -32.27)"/><path class="cls-6" d="M162.52,309l.93,2.71.94-2.71h1l-1.47,3.75h-1L161.46,309Z" transform="translate(-68.22 -32.27)"/><path class="cls-6" d="M168,312.09h-1.62l-.26.66h-1l1.61-3.75h1l1.57,3.75h-1Zm-.29-.75-.51-1.34-.52,1.34Z" transform="translate(-68.22 -32.27)"/><path class="cls-6" d="M170.56,309v2.91h1.59v.84h-2.57V309Z" transform="translate(-68.22 -32.27)"/><path class="cls-6" d="M173.57,309v3.75h-1V309Z" transform="translate(-68.22 -32.27)"/><path class="cls-6" d="M177.91,310.87a1.86,1.86,0,0,1-2,1.88H174.3V309h1.61A1.84,1.84,0,0,1,177.91,310.87Zm-1,0a1,1,0,0,0-1-1.08h-.61V312h.66A1,1,0,0,0,176.91,310.88Z" transform="translate(-68.22 -32.27)"/><path class="cls-6" d="M182.42,309v.78H180.6v.83h1.68v.79H180.6v1.35h-1V309Z" transform="translate(-68.22 -32.27)"/><path class="cls-6" d="M185.11,312.75l-.54-1h-.73v1h-1V309h1.69c1,0,1.56.48,1.56,1.32a1.26,1.26,0,0,1-.67,1.2l.78,1.23Zm-1.27-1.82h.71c.4,0,.63-.2.63-.58s-.23-.57-.63-.57h-.71Z" transform="translate(-68.22 -32.27)"/><path class="cls-6" d="M190.54,310.87a2,2,0,1,1-2-1.9A1.92,1.92,0,0,1,190.54,310.87Zm-3,0a1.05,1.05,0,0,0,1,1.08,1.08,1.08,0,1,0-1-1.08Z" transform="translate(-68.22 -32.27)"/><path class="cls-6" d="M192.1,309l1,2.19,1-2.19h1.07v3.75h-.86v-2.38l-.87,2h-.64l-.87-2v2.38H191V309Z" transform="translate(-68.22 -32.27)"/><path class="cls-6" d="M412.51,369.29a13.18,13.18,0,1,1,13.18-13.18A13.19,13.19,0,0,1,412.51,369.29Zm0-24.22a11,11,0,1,0,11,11A11,11,0,0,0,412.51,345.07Z" transform="translate(-68.22 -32.27)"/><path class="cls-6" d="M429.24,369.29a13.18,13.18,0,1,1,13.18-13.18A13.19,13.19,0,0,1,429.24,369.29Zm0-24.22a11,11,0,1,0,11.05,11A11.06,11.06,0,0,0,429.24,345.07Z" transform="translate(-68.22 -32.27)"/><rect class="cls-6" x="93.24" y="317.92" width="158.06" height="9.85"/><path class="cls-13" d="M369.68,402.22H302.44v7.09C302.44,418,318.34,425,338,425s35.52-7,35.52-15.73v-7.09Z" transform="translate(-68.22 -32.27)"/><path class="cls-14" d="M373.5,402.21a2.62,2.62,0,0,1,0,.28C373.17,411.06,357.37,418,338,418c-19.63,0-35.53-7.05-35.53-15.74a7.11,7.11,0,0,1,.58-2.81c3-7.35,17.5-12.93,35-12.93s32,5.58,34.95,12.93a7.31,7.31,0,0,1,.57,2.53A2.62,2.62,0,0,1,373.5,402.21Z" transform="translate(-68.22 -32.27)"/><ellipse class="cls-13" cx="269.75" cy="369.95" rx="28.89" ry="12.8"/><path class="cls-14" d="M341.24,407v2.68H336V407a37.55,37.55,0,0,1-10-1.88l2.81-2.51a32.64,32.64,0,0,0,10.07,1.86c2.14,0,3.49-.35,3.49-1,0-2.09-14.63-.83-14.63-5.18,0-1.95,3.17-3.31,8.25-3.67V392h5.27v2.57a40,40,0,0,1,8.68,1.32l-2.73,2.54a42.76,42.76,0,0,0-9-1.32c-1.75,0-2.9.29-2.9.85,0,2,14.63.88,14.63,5.3C350,405.41,346.23,406.68,341.24,407Z" transform="translate(-68.22 -32.27)"/><path class="cls-13" d="M382.15,394.19H314.9v7.09c0,8.69,15.91,15.74,35.54,15.74S386,410,386,401.28v-7.09Z" transform="translate(-68.22 -32.27)"/><path class="cls-14" d="M386,394.18a2.62,2.62,0,0,1,0,.28c-.32,8.57-16.11,15.46-35.52,15.46-19.62,0-35.53-7-35.53-15.74a7.33,7.33,0,0,1,.58-2.81c3-7.35,17.5-12.92,34.95-12.92s32,5.57,34.95,12.92a7.1,7.1,0,0,1,.57,2.54A2.44,2.44,0,0,1,386,394.18Z" transform="translate(-68.22 -32.27)"/><ellipse class="cls-13" cx="282.21" cy="361.92" rx="28.89" ry="12.8"/><path class="cls-14" d="M353.7,399v2.69h-5.27v-2.71a37.24,37.24,0,0,1-10-1.88l2.81-2.51a32.64,32.64,0,0,0,10.07,1.86c2.15,0,3.49-.35,3.49-1,0-2.09-14.63-.83-14.63-5.18,0-2,3.18-3.3,8.25-3.67V384h5.27v2.56a40.11,40.11,0,0,1,8.69,1.32l-2.74,2.54a43.27,43.27,0,0,0-9-1.31c-1.74,0-2.89.28-2.89.84,0,2,14.63.88,14.63,5.3C362.43,397.38,358.7,398.65,353.7,399Z" transform="translate(-68.22 -32.27)"/><path class="cls-13" d="M364.51,377.85H297.27v7.08c0,8.69,15.9,15.74,35.53,15.74s35.52-7.05,35.52-15.74v-7.08Z" transform="translate(-68.22 -32.27)"/><path class="cls-14" d="M368.33,377.84a1.23,1.23,0,0,1,0,.27c-.32,8.57-16.11,15.47-35.51,15.47-19.63,0-35.53-7.05-35.53-15.74a7.07,7.07,0,0,1,.58-2.81c3-7.35,17.49-12.93,34.95-12.93s32,5.58,34.95,12.93a7,7,0,0,1,.56,2.53A1.32,1.32,0,0,1,368.33,377.84Z" transform="translate(-68.22 -32.27)"/><ellipse class="cls-13" cx="264.58" cy="345.57" rx="28.89" ry="12.8"/><path class="cls-14" d="M336.07,382.6v2.69h-5.28v-2.71a36.93,36.93,0,0,1-10-1.88l2.82-2.51a32.55,32.55,0,0,0,10.07,1.87c2.14,0,3.49-.36,3.49-1,0-2.09-14.63-.82-14.63-5.18,0-1.95,3.17-3.3,8.24-3.67v-2.58h5.28v2.56a40,40,0,0,1,8.68,1.32L342,374.05a42.67,42.67,0,0,0-9-1.32c-1.74,0-2.89.28-2.89.84,0,2,14.63.88,14.63,5.31C344.79,381,341.06,382.3,336.07,382.6Z" transform="translate(-68.22 -32.27)"/><path class="cls-13" d="M388.78,362.47H321.54v7.08c0,8.69,15.91,15.74,35.53,15.74s35.52-7.05,35.52-15.74v-7.08Z" transform="translate(-68.22 -32.27)"/><path class="cls-14" d="M392.6,362.46a2.44,2.44,0,0,1,0,.27c-.32,8.57-16.11,15.47-35.52,15.47-19.63,0-35.53-7.05-35.53-15.74a7.07,7.07,0,0,1,.58-2.81c3-7.35,17.5-12.93,34.95-12.93s32,5.58,34.95,12.93a7.21,7.21,0,0,1,.57,2.53A2.62,2.62,0,0,1,392.6,362.46Z" transform="translate(-68.22 -32.27)"/><ellipse class="cls-13" cx="288.85" cy="330.19" rx="28.89" ry="12.8"/><path class="cls-14" d="M360.34,367.22v2.69h-5.27V367.2a36.78,36.78,0,0,1-10-1.88l2.81-2.51A32.66,32.66,0,0,0,358,364.68c2.14,0,3.49-.36,3.49-1,0-2.09-14.63-.82-14.63-5.18,0-1.95,3.17-3.3,8.25-3.67v-2.58h5.27v2.56a40,40,0,0,1,8.68,1.32l-2.73,2.55a42.76,42.76,0,0,0-9-1.32c-1.75,0-2.9.28-2.9.84,0,2,14.63.88,14.63,5.31C369.06,365.66,365.34,366.92,360.34,367.22Z" transform="translate(-68.22 -32.27)"/><circle class="cls-14" cx="219.61" cy="388.46" r="35.58" transform="translate(-240.96 143.62) rotate(-32.07)"/><circle class="cls-13" cx="219.61" cy="388.46" r="28.93" transform="translate(-129.92 9.79) rotate(-9.6)"/><path class="cls-14" d="M228.55,399.59l2.62,5.48-4.77,2.28-2.63-5.52a20.59,20.59,0,0,1-10.86.48L213,396c3.64,1,8.3.7,10.91-.55,1.94-.92,2.81-2.22,2.18-3.55-2-4.26-14,4.63-18.27-4.25-1.9-4-.35-8.11,3.88-11.05l-2.52-5.27L214,369l2.5,5.23a20.58,20.58,0,0,1,9.13-1.06v6.37c-3.36-.23-7.3.19-9.38,1.18-1.57.76-2.34,1.83-1.79,3,2,4.16,14.08-4.52,18.39,4.51C234.91,392.64,232.77,396.82,228.55,399.59Z" transform="translate(-68.22 -32.27)"/><path class="cls-5" d="M410.6,105.32a54.27,54.27,0,0,0-76.67,0,3.1,3.1,0,0,0,4.38,4.38,48.06,48.06,0,0,1,67.91,0,3.1,3.1,0,0,0,4.38-4.38Z" transform="translate(-68.22 -32.27)"/><path class="cls-5" d="M343.67,115.05a3.1,3.1,0,1,0,4.38,4.38,34.29,34.29,0,0,1,48.43,0,3.1,3.1,0,1,0,4.38-4.38A40.5,40.5,0,0,0,343.67,115.05Z" transform="translate(-68.22 -32.27)"/><path class="cls-5" d="M353.46,124.85a3.1,3.1,0,0,0,4.38,4.38,20.41,20.41,0,0,1,28.85,0,3.1,3.1,0,0,0,4.38-4.38A26.62,26.62,0,0,0,353.46,124.85Z" transform="translate(-68.22 -32.27)"/><path class="cls-5" d="M367.48,131.82a8.57,8.57,0,1,0,12.11,0A8.56,8.56,0,0,0,367.48,131.82Z" transform="translate(-68.22 -32.27)"/><path class="cls-14" d="M582.89,110.16l-1.32-3.9-1.32,3.9a21.09,21.09,0,0,1-9.86,11.76h0a21.09,21.09,0,0,1,9.86,11.76l1.32,3.9,1.32-3.9a21.05,21.05,0,0,1,9.86-11.76h0A21.05,21.05,0,0,1,582.89,110.16Z" transform="translate(-68.22 -32.27)"/><path class="cls-14" d="M599.39,143.53l-.91-2.71-.92,2.71a14.6,14.6,0,0,1-6.84,8.15h0a14.66,14.66,0,0,1,6.84,8.16l.92,2.71.91-2.71a14.66,14.66,0,0,1,6.84-8.16h0A14.6,14.6,0,0,1,599.39,143.53Z" transform="translate(-68.22 -32.27)"/><path class="cls-15" d="M497.28,206a69.15,69.15,0,0,0,6,13.34,12,12,0,0,1,1.35-4.24c1.77-3.33,4.92-6,8.16-8.1,4.11-2.64,8.52-4.73,12.07-8.14,4.44-4.27,6.61-10.12,7.14-16.16.44-5.1.15-10.6-2.46-15a12.4,12.4,0,0,0-1.34-1.91,16.11,16.11,0,0,0-1.74-1.77c.24.21.09.73-.29,1.4a36.26,36.26,0,0,1-4.42,5.5c-3,2.86-6.69,4.27-10.26,6-6.19,3-12.2,8-14.43,14.64A24.2,24.2,0,0,0,497.28,206Z" transform="translate(-68.22 -32.27)"/><path class="cls-15" d="M521.32,150.83c0,3.44.1,7,1.51,10.12a13.41,13.41,0,0,0,3.36,4.47,14.79,14.79,0,0,0,2,1.5,12.25,12.25,0,0,0,1.36.78,18.31,18.31,0,0,0,3.72,1.39,26.52,26.52,0,0,0,13.54-.7,23.14,23.14,0,0,0,10.65-5.93,21.43,21.43,0,0,0,4.79-9.31,29.12,29.12,0,0,0,.49-12.93,23.74,23.74,0,0,0-1.67-5.35c-.15-.33-.31-.67-.47-1-.24-.48-.5-.94-.76-1.39a20,20,0,0,0-1.76-2.5,21.48,21.48,0,0,0-14-7.58,16.53,16.53,0,0,0-5.71.18,20.76,20.76,0,0,0-10.49,5.93,21.84,21.84,0,0,0-5.42,9C521.23,141.8,521.26,146.36,521.32,150.83Z" transform="translate(-68.22 -32.27)"/><path class="cls-16" d="M610.81,195a2.47,2.47,0,0,1,2.24.1,7.29,7.29,0,0,1,1.79,1.49l4.21,4.35a2.25,2.25,0,0,1,.53.73,1.51,1.51,0,0,1-1.21,1.78A4.38,4.38,0,0,1,616,203c.7.76,1.52,1.52,2.22,2.28a.74.74,0,0,1,.27.53.72.72,0,0,1-.4.49,4,4,0,0,1-3.64.21c.56.54,1,1.14,1.55,1.69.19.18.4.42.34.68a.75.75,0,0,1-.43.44,5.57,5.57,0,0,1-4.31.38c-.22,2.2-1,4.45-3.12,5.14l-10.54-8.11,4.7-9.1Z" transform="translate(-68.22 -32.27)"/><path class="cls-17" d="M611,195.91s-4.69,4.38-6.59,4.49c0,0,2.39,8.42.24,11.5L600,208.33l-2.05-1.57s1.22-8.75,2.59-10.07,13.66-6.19,13.88-6.05c0,0,.08.1.14.23h0C614.87,191.75,615.22,194.62,611,195.91Z" transform="translate(-68.22 -32.27)"/><polygon class="cls-15" points="550.32 157.06 535.36 168.58 536.48 171.18 551.91 158.7 550.32 157.06"/><path class="cls-17" d="M602.86,210.56s2.95-9.81,3.42-10.12,2.51-4.14,3.49-4.46,2.88.22,3,1.14-1.56,4-1.56,4-1.9,7.8-2.07,8.61-.67,5.18-.67,5.18Z" transform="translate(-68.22 -32.27)"/><path class="cls-17" d="M608.47,214.89a6,6,0,0,1-2.08,2.7c-1.65,1.31-4.12,3-4.12,3l-6-4.94-1.44-1.19,2-2.56,1.12-5.14,2.05,1.57,4.63,3.57Z" transform="translate(-68.22 -32.27)"/><path class="cls-18" d="M614.54,190.87h0c-3.49,1.91-12.53,6.85-12.89,7S600.53,204,600,208.33c-.31,2.43-.55,4.33-.55,4.33l-3.14,3-1.44-1.19,2-2.56,1.12-5.14s1.22-8.75,2.59-10.07,13.66-6.19,13.88-6.05C614.44,190.65,614.48,190.74,614.54,190.87Z" transform="translate(-68.22 -32.27)"/><path class="cls-17" d="M557.38,419.14H545s-5.33-52.68-4.39-57.56c.47-2.43,1.34-5.64,2.25-8.76l19,.88C560.07,371.41,557.38,419.14,557.38,419.14Z" transform="translate(-68.22 -32.27)"/><path class="cls-17" d="M501.63,413.15s2.36-44,2.66-47.91,3.28-11.41,5.95-17.28l17.61,4.69c-3.8,11.56-13.71,61.93-13.71,61.93Z" transform="translate(-68.22 -32.27)"/><path class="cls-19" d="M583,434a2.55,2.55,0,0,0-1.43-2c-2.78-1.24-13-5.08-15.76-7.27-2.15-1.7-4-5.41-4.78-7l-19,1c-1.08,4.93-1.77,14.44-1.91,16.43Z" transform="translate(-68.22 -32.27)"/><polygon class="cls-6" points="514.87 406.06 472.02 407.18 471.89 402.87 514.74 401.75 514.87 406.06"/><path class="cls-6" d="M562.2,426a1.09,1.09,0,0,0-.08.15c-.2.39-.32,1,.19,1.19a1.35,1.35,0,0,0,.82,0,8.65,8.65,0,0,0,2.61-1.13,6.72,6.72,0,0,0,2.37-2c.57-.93-.28-1.75-1.29-1.51A7.63,7.63,0,0,0,562.2,426Z" transform="translate(-68.22 -32.27)"/><path class="cls-6" d="M565.49,428.23a1.09,1.09,0,0,0-.08.15c-.2.38-.32,1,.18,1.18a1.38,1.38,0,0,0,.83,0,9,9,0,0,0,2.61-1.13,6.84,6.84,0,0,0,2.37-2c.57-.92-.28-1.75-1.29-1.51A7.62,7.62,0,0,0,565.49,428.23Z" transform="translate(-68.22 -32.27)"/><path class="cls-6" d="M569.5,429.65a1.09,1.09,0,0,0-.08.15c-.2.38-.32,1,.18,1.18a1.38,1.38,0,0,0,.83,0,9,9,0,0,0,2.61-1.13,6.85,6.85,0,0,0,2.37-2c.57-.92-.28-1.75-1.29-1.51A7.61,7.61,0,0,0,569.5,429.65Z" transform="translate(-68.22 -32.27)"/><path class="cls-19" d="M520.27,439.22c0,1.73-13.31,5.19-15.85,5s-11.83-6.9-11.83-6.9.36-1.37.94-3.5c1.63-5.92,5-17.67,6.91-21.91l15,2c.8,2.5,3.42,15.2,4.17,20C520,436.48,520.27,438.62,520.27,439.22Z" transform="translate(-68.22 -32.27)"/><path class="cls-6" d="M492.59,437.29s9.3,6.69,11.83,6.9,15.85-3.24,15.85-5c0-.61-.29-2.75-.7-5.33-4.33,1.73-13.6,5.17-16.66,4-2.08-.76-6-2.57-9.38-4.15C493,435.92,492.59,437.29,492.59,437.29Z" transform="translate(-68.22 -32.27)"/><path class="cls-6" d="M504.45,424.17l-.16.07c-.38.19-.82.58-.54,1.06a1.37,1.37,0,0,0,.65.51,8.79,8.79,0,0,0,2.75.71,6.63,6.63,0,0,0,3.07-.14c1-.38.81-1.57-.14-2A7.47,7.47,0,0,0,504.45,424.17Z" transform="translate(-68.22 -32.27)"/><path class="cls-6" d="M504.45,427.91l-.16.07c-.38.19-.82.58-.54,1.06a1.37,1.37,0,0,0,.65.51,8.79,8.79,0,0,0,2.75.71,6.63,6.63,0,0,0,3.07-.14c1-.38.81-1.57-.14-2A7.47,7.47,0,0,0,504.45,427.91Z" transform="translate(-68.22 -32.27)"/><path class="cls-6" d="M504.09,431.34l-.15.07c-.39.18-.83.57-.55,1.06a1.43,1.43,0,0,0,.65.51,8.77,8.77,0,0,0,2.75.7,6.62,6.62,0,0,0,3.07-.14c1-.38.81-1.56-.14-2A7.52,7.52,0,0,0,504.09,431.34Z" transform="translate(-68.22 -32.27)"/><path class="cls-20" d="M497,394.42l71.26,4.24s.3-2.91.76-7.51c1.36-13.56,4.09-41.82,4.43-53.35.48-16.24-2-64.55-2-64.55l-48.9-.52-5.93-.06-2,6.4L512.81,312s-11.53,37-11.17,40.85S497,394.42,497,394.42Z" transform="translate(-68.22 -32.27)"/><path class="cls-15" d="M497,394.42l71.26,4.24s.3-2.91.76-7.51L506.42,386s1-23.54,4.12-33.16S522,313.12,522,313.12l.61-40.39-5.93-.06-2,6.4L512.81,312s-11.53,37-11.17,40.85S497,394.42,497,394.42Z" transform="translate(-68.22 -32.27)"/><path class="cls-17" d="M476.84,180.6s1.59-3.76,3.61-3.9-.87,9.54-.87,9.54Z" transform="translate(-68.22 -32.27)"/><polygon class="cls-17" points="406.73 170.98 398.43 162.93 407.99 155.34 410.79 163.88 413.25 166.64 406.73 170.98"/><path class="cls-19" d="M456.32,176.9c.71-4,9.79-10.14,11.05-10s15.56,18.85,15.72,20.91-8.53,9.76-10.93,9.75C470.93,197.29,455.68,180.46,456.32,176.9Z" transform="translate(-68.22 -32.27)"/><path class="cls-17" d="M466.65,195.2s-2.79-1.26-1.68-3.33,3.5-4.28,4.35-3.71,0,7,0,7Z" transform="translate(-68.22 -32.27)"/><path class="cls-17" d="M464.71,193.27s-3.35-1.93-2.24-4,3.5-4.29,4.35-3.71,0,7,0,7Z" transform="translate(-68.22 -32.27)"/><path class="cls-17" d="M462.44,190.14s-3.34-1.93-2.23-4,3.5-4.29,4.35-3.71,0,7,0,7Z" transform="translate(-68.22 -32.27)"/><path class="cls-17" d="M460.21,186.14s-3.48-3.22-3.11-4.74,2.83-3.47,3.48-3-.6,5.62-.6,5.62l1,1.42Z" transform="translate(-68.22 -32.27)"/><path class="cls-7" d="M480.77,183.35c.32.73-6.29,6.35-7.41,6.49S462.69,179.06,460.91,177l0,0c-.17-.2-.27-.3-.27-.3s8.52-7.8,9.1-7.65a8.2,8.2,0,0,1,1.36,1.51C474,174.11,480.52,182.78,480.77,183.35Z" transform="translate(-68.22 -32.27)"/><path class="cls-5" d="M471.08,170.56l-8.84,7.65L460.91,177l0,0c-.17-.2-.27-.3-.27-.3s8.52-7.8,9.1-7.65A8.2,8.2,0,0,1,471.08,170.56Z" transform="translate(-68.22 -32.27)"/><path class="cls-5" d="M480.77,183.35c.32.73-6.29,6.35-7.41,6.49-.58.08-3.82-3.29-6.9-6.63l8.36-7.91.66.86c.33.44.66.85,1,1.29h0c.13.17.24.33.37.49l1,1.3c.13.18.26.34.37.5l1,1.32c.13.17.26.34.37.5.41.55.73,1,1,1.33A3.39,3.39,0,0,1,480.77,183.35Z" transform="translate(-68.22 -32.27)"/><polygon class="cls-21" points="393.67 140.24 398.06 136.78 398.65 137.46 394.24 140.82 393.67 140.24"/><rect class="cls-7" x="468.37" y="181.76" width="2.85" height="1.63" transform="translate(-66.39 337.53) rotate(-43.04)"/><rect class="cls-7" x="470.99" y="179.32" width="2.85" height="1.63" transform="translate(-64.02 338.64) rotate(-43.04)"/><path class="cls-7" d="M476.47,177.45h0l-1.93,1.79-1.11-1.17,2.05-1.92C475.81,176.6,476.14,177,476.47,177.45Z" transform="translate(-68.22 -32.27)"/><rect class="cls-7" x="469.9" y="183.4" width="2.85" height="1.63" transform="translate(-67.09 339.01) rotate(-43.04)"/><rect class="cls-7" x="472.51" y="180.96" width="2.85" height="1.63" transform="translate(-64.72 340.13) rotate(-43.04)"/><path class="cls-7" d="M477.82,179.25l-1.75,1.65L475,179.71l1.88-1.76Z" transform="translate(-68.22 -32.27)"/><rect class="cls-7" x="471.43" y="185.03" width="2.85" height="1.63" transform="translate(-67.8 340.49) rotate(-43.04)"/><rect class="cls-7" x="474.04" y="182.59" width="2.85" height="1.63" transform="translate(-65.43 341.62) rotate(-43.04)"/><path class="cls-7" d="M479.16,181.07l-1.57,1.47-1.11-1.19,1.71-1.6Z" transform="translate(-68.22 -32.27)"/><rect class="cls-14" x="472.96" y="186.67" width="2.85" height="1.63" transform="translate(-68.5 341.98) rotate(-43.04)"/><rect class="cls-7" x="475.57" y="184.23" width="2.85" height="1.63" transform="translate(-66.14 343.1) rotate(-43.04)"/><path class="cls-10" d="M480.48,182.9l-1.36,1.27L478,183l1.52-1.41C479.94,182.12,480.26,182.58,480.48,182.9Z" transform="translate(-68.22 -32.27)"/><polygon class="cls-10" points="405.54 159.86 407.64 158.01 408.78 159.37 406.73 161.16 405.54 159.86"/><polygon class="cls-14" points="408.43 157.37 410.53 155.53 411.67 156.88 409.62 158.67 408.43 157.37"/><polygon class="cls-9" points="410.94 155.04 413.05 153.2 414.19 154.55 412.14 156.34 410.94 155.04"/><path class="cls-22" d="M457.37,176.7s2.58.11,3.26.72,10.83,12.54,11,12.86.43,5.88.81,6,.76-6.5.76-6.5-11.49-13.38-12.54-13.49S456.61,176.26,457.37,176.7Z" transform="translate(-68.22 -32.27)"/><path class="cls-15" d="M469.57,178.28c-.58-.63.5-1.32.23-1.61-.07-.08-.18,0-.29.05a1.77,1.77,0,0,0-.4.71l-.51-.21a1.82,1.82,0,0,1,.38-.69l-.34-.37.34-.3.34.37a.72.72,0,0,1,1,0c.57.62-.52,1.29-.25,1.59.09.09.22.07.36-.06a1.57,1.57,0,0,0,.39-.85l.51.2a1.66,1.66,0,0,1-.39.84l.36.39-.34.31-.35-.39A.75.75,0,0,1,469.57,178.28Z" transform="translate(-68.22 -32.27)"/><path class="cls-15" d="M468.36,178.59l1.24.07.28.31-1.34,1.23-.34-.37.75-.69-.69,0a1.28,1.28,0,0,1-.88-.27c-.26-.28-.17-.7.19-1a1.61,1.61,0,0,1,1-.4l.13.49a1.2,1.2,0,0,0-.69.23c-.12.12-.15.24-.06.33A.7.7,0,0,0,468.36,178.59Z" transform="translate(-68.22 -32.27)"/><path class="cls-15" d="M466.8,179.73l-.25-.27-.76.7-.34-.37,1.18-1.09.92,1c-.11.09-.41.35-.5.44s-.21.33-.08.46.3.13.48,0a.9.9,0,0,0,.26-.64l.51.18a1.78,1.78,0,0,1-.5.87.86.86,0,0,1-1.28,0c-.29-.31-.22-.78.2-1.16Z" transform="translate(-68.22 -32.27)"/><polygon class="cls-7" points="393.67 144.27 397.94 140.48 398.45 141.02 394.19 144.85 393.67 144.27"/><path class="cls-15" d="M578.31,218.9c1.32-3.76,3.59-10.36,8.59-9.94s8.64,6.55,10.45,10.52c3.12,6.84,3.4,14.49,3.66,21.88,0,1.24-1.88,1.18-1.92-.06-.2-5.47-.38-11-1.82-16.31-1.36-5-5-13.81-10.95-13.55-2.81.12-2.76.93-4,3.18a29.62,29.62,0,0,0-1.86,4.1,38.11,38.11,0,0,0-1.86,6.89,69.82,69.82,0,0,0-.71,15.76c.06,1.24-1.87,1.18-1.93-.05C575.59,233.81,575.8,226.07,578.31,218.9Z" transform="translate(-68.22 -32.27)"/><path class="cls-9" d="M514.74,279.07c6.88-5.1,54.33.48,54.33.48s.93-2.18,2.45-6.3a4.52,4.52,0,0,0,.22-1.54c0-5.76-5.86-19.83-5.86-19.83a171.88,171.88,0,0,1,2.69-21c.64-3.88,4.75-24.92,2-30.42A114.57,114.57,0,0,0,563.36,189c-2.79-4-5.24-7.3-5.24-7.3l-10.6-5.78-11.67.43-7.28,3.71,0,0-8.17,4.17s-.3,4.28-.7,11.09c-.59,10-1.4,25.55-1.76,40.94-.13,5.28-.2,10.55-.2,15.58,0,0-4,10.2-4.76,13.84S514.74,279.07,514.74,279.07Z" transform="translate(-68.22 -32.27)"/><path class="cls-17" d="M533.57,177.54s10.71,2.17,12.3,1.48,3.79-1.79,3.79-1.79c-.36-.4-2.84-4.14-2.78-5.42a54.94,54.94,0,0,1,1-7.05l-10-2.88s-.27,2.82-.69,5.81S534.16,177.05,533.57,177.54Z" transform="translate(-68.22 -32.27)"/><path class="cls-6" d="M548.29,175.14l8.74,6s-2.19,8.84-5.42,7.68-6.82-5.34-6.82-5.34-3.45,7.8-7.08,7.36-9.14-10.75-9.14-10.75l5.9-4.14S546,182.72,548.29,175.14Z" transform="translate(-68.22 -32.27)"/><path class="cls-16" d="M537.24,167.69c2.79,1.87,6.21,4.08,7.31,4.4a3.21,3.21,0,0,0,2.33-.28,54.18,54.18,0,0,1,1-7.05l-10-2.88S537.65,164.7,537.24,167.69Z" transform="translate(-68.22 -32.27)"/><path class="cls-18" d="M531.15,134.7a17.24,17.24,0,0,1,21.25-5,8.67,8.67,0,0,1,3.66,3c2.57,4.57,6.76,21.67,3.6,30.14s-8.85,7.62-10.89,7.14-11.66-3.94-14-6.91-7.79-18.59-7-22.78C528.1,138.91,529.46,136.84,531.15,134.7Z" transform="translate(-68.22 -32.27)"/><path class="cls-17" d="M530.45,133.49a17.22,17.22,0,0,1,21.24-5,8.5,8.5,0,0,1,3.67,3c2.57,4.57,6.76,21.67,3.59,30.14s-8.85,7.62-10.88,7.14-11.66-3.95-14-6.91-7.8-18.6-7-22.78C527.4,137.7,528.76,135.63,530.45,133.49Z" transform="translate(-68.22 -32.27)"/><path class="cls-15" d="M524.55,153.11q.19.54.45,1.08a6.14,6.14,0,0,1,8,.67,12.89,12.89,0,0,0-1.92-10.58,17.17,17.17,0,0,0,7.37-8.51,15.91,15.91,0,0,0,11.15,3.51,13.11,13.11,0,0,1-2.46-6,32.27,32.27,0,0,0,15.59,6.94,29.66,29.66,0,0,0,4.21.37,37.55,37.55,0,0,0-2.28-6.26c-3-6.43-8.22-12.2-15.4-13.09a24.23,24.23,0,0,0-19.5,6.8A24.26,24.26,0,0,0,524.55,153.11Z" transform="translate(-68.22 -32.27)"/><path class="cls-20" d="M497.21,205.71a2.5,2.5,0,0,0,.07.26,69.15,69.15,0,0,0,6,13.34,12,12,0,0,1,1.35-4.24,31.32,31.32,0,0,1-2.34-16.55c1.17,1.61,2.35,3.22,3.52,4.84-.23-6.08,2.41-12,6-16.84s8.18-9,12.46-13.27c1.78-1.79,3.62-3.91,3.89-6.33a3.89,3.89,0,0,0,0-1.13v0c-.33-3.38-3.87-5.75-4.28-9.11a7,7,0,0,1,.61-3.54c.56-1.41,1.41-2.77,2-4.15,1.17-2.49,1.37-6.1-1.06-7.4A16,16,0,0,0,537.45,129l8.36,3.24q-.75-2.92-1.51-5.87a34.9,34.9,0,0,0,16.31,7.54,32.7,32.7,0,0,0,4.07.46,28.1,28.1,0,0,0-6.06-8.54,16.7,16.7,0,0,0-9.34-4.55,22.77,22.77,0,0,0-8,.48l-.85.22c-.69.18-1.37.4-2,.64a17.75,17.75,0,0,0-4.3,1.46c-.28.13-.56.28-.83.43a23,23,0,0,0-5.36,4,21.84,21.84,0,0,0-5.42,9c0,.14-.08.29-.11.42a23.33,23.33,0,0,0-.68,3.26,58.52,58.52,0,0,0-.41,9.64c0,3.44.1,7,1.51,10.12a12.7,12.7,0,0,0,1.68,2.72,13.87,13.87,0,0,0,1.68,1.75,36.26,36.26,0,0,1-4.42,5.5,17.21,17.21,0,0,1-1.55,1.32c-2.66,2-5.74,3.24-8.71,4.65-6.19,3-12.2,8-14.43,14.64A24.14,24.14,0,0,0,497.21,205.71Z" transform="translate(-68.22 -32.27)"/><path class="cls-23" d="M541.32,121.72a26.63,26.63,0,0,0,17.3,4.07,16.7,16.7,0,0,0-9.34-4.55A22.77,22.77,0,0,0,541.32,121.72Z" transform="translate(-68.22 -32.27)"/><path class="cls-23" d="M538.43,122.58a17.75,17.75,0,0,0-4.3,1.46,18.06,18.06,0,0,0,8.9,2.57l-2.56-4.67C539.78,122.12,539.1,122.34,538.43,122.58Z" transform="translate(-68.22 -32.27)"/><path class="cls-23" d="M522.41,137.93a16.92,16.92,0,0,0,8.18-3.82c2.59-2.42,3.91-6.44,2.71-9.64a23,23,0,0,0-5.36,4,21.84,21.84,0,0,0-5.42,9C522.48,137.65,522.44,137.8,522.41,137.93Z" transform="translate(-68.22 -32.27)"/><path class="cls-23" d="M521.73,141.19a58.52,58.52,0,0,0-.41,9.64c0,3.44.1,7,1.51,10.12a12.7,12.7,0,0,0,1.68,2.72,11,11,0,0,0,.09-2.57c-.22-2.58-1.33-5-1.68-7.56s.07-5.45-.12-8.17A11,11,0,0,0,521.73,141.19Z" transform="translate(-68.22 -32.27)"/><path class="cls-23" d="M497.21,205.71c-.3-5.8.35-11.64,2-13.71l2.76,2.39c.17-4.65,3.08-8.76,6.48-11.94s7.37-5.7,10.64-9q.57-.57,1.11-1.2c-2.66,2-5.74,3.24-8.71,4.65-6.19,3-12.2,8-14.43,14.64A24.14,24.14,0,0,0,497.21,205.71Z" transform="translate(-68.22 -32.27)"/><path class="cls-16" d="M549.59,154.23a2.86,2.86,0,0,0-1.3,0A4.21,4.21,0,0,0,551,155.8a.53.53,0,0,0,.25,0,.66.66,0,0,0,.25-.17,5,5,0,0,0,1.09-1.59,1,1,0,0,0,.1-.37c0-.44-.27-.28-.49-.12a3.6,3.6,0,0,1-.82.44A4,4,0,0,1,549.59,154.23Z" transform="translate(-68.22 -32.27)"/><path class="cls-24" d="M551.06,155.54c.19-.29.43-.54.63-.83a6.37,6.37,0,0,0,.65-1.1c-1.56-.59-1.89-2-2.22-3.58a4.68,4.68,0,0,1,.51-3.24,5.29,5.29,0,0,1,.32-.5,2,2,0,0,1,.39-.37c-.05.12-.08.24-.13.36-.13.3-.28.58-.38.89a6.48,6.48,0,0,0-.22,1,5.61,5.61,0,0,0,.07,2,4.76,4.76,0,0,0,.75,1.78,3.81,3.81,0,0,0,1.76,1.39s-.65,1.28-.72,1.39a4.15,4.15,0,0,1-.6.78,1.7,1.7,0,0,1-.81.58.54.54,0,0,1-.31,0l.12-.17,0-.07A1.76,1.76,0,0,1,551.06,155.54Z" transform="translate(-68.22 -32.27)"/><path class="cls-17" d="M533.44,154.55c-.52-.21-3.23-3.4-4.9-1.28s-2,5.48-.19,7.27c1.63,1.62,3.86,3.36,6.43,2.55Z" transform="translate(-68.22 -32.27)"/><path class="cls-16" d="M528.73,155.82a2.49,2.49,0,0,0,.19,1.34c.7,1.83,2.54,3.14,4.3,4.36a5,5,0,0,1-.77-2.89c0-.35.06-.7,0-1C532.42,156.18,529.2,153.15,528.73,155.82Z" transform="translate(-68.22 -32.27)"/><path class="cls-25" d="M534.1,162l-.1-.05-.28-.15a3.81,3.81,0,0,1-.88-.75,3.68,3.68,0,0,1-.77-1.43,3.38,3.38,0,0,1,.08-2,1.89,1.89,0,0,1,.11-.25l0-.06s0,0,0,0h0l0-.05-.06-.1-.13-.2a8.94,8.94,0,0,0-.56-.74c-.19-.23-.39-.44-.58-.63a5.94,5.94,0,0,0-.56-.49,1.24,1.24,0,0,0-.56-.22.89.89,0,0,0-.46.11.42.42,0,0,0-.19.22c0,.06,0,.09,0,.09s0,0,0-.1a.42.42,0,0,1,.16-.26.93.93,0,0,1,.52-.22,1.52,1.52,0,0,1,.73.18,4.79,4.79,0,0,1,.69.45,7.48,7.48,0,0,1,.68.61,5.31,5.31,0,0,1,.65.75,1.91,1.91,0,0,1,.15.21l.07.1.09.16.07.1a.61.61,0,0,1-.05.12l-.08.16a1.45,1.45,0,0,0-.09.22,3.56,3.56,0,0,0-.16,1.75,4.07,4.07,0,0,0,.53,1.39,4.5,4.5,0,0,0,.69.82,2.12,2.12,0,0,0,.24.19Z" transform="translate(-68.22 -32.27)"/><path class="cls-15" d="M558,141.21s-2.59-1.78-4.13-1.55-1.94,1.68-1.31,1.93S558,141.21,558,141.21Z" transform="translate(-68.22 -32.27)"/><path class="cls-15" d="M536.19,144.79s3.42-3.34,5.8-3.92,3.36.77,2.49,1.38S536.19,144.79,536.19,144.79Z" transform="translate(-68.22 -32.27)"/><path class="cls-16" d="M543.09,155.46c-.06.74-1.7,1.22-3.66,1.06s-3.51-.88-3.45-1.62,1.7-1.22,3.66-1.07S543.15,154.71,543.09,155.46Z" transform="translate(-68.22 -32.27)"/><path class="cls-16" d="M561.89,150.67c.27.5-.73,1.56-2.23,2.36s-2.93,1.06-3.2.56.74-1.56,2.23-2.36S561.63,150.17,561.89,150.67Z" transform="translate(-68.22 -32.27)"/><path class="cls-15" d="M537.84,146.85a3.33,3.33,0,0,0,1.91,1,1.41,1.41,0,0,1,.89-.76c1-.23,2,.84,2.4,2.39s-.11,3-1.08,3.21-2-.84-2.4-2.39a4.07,4.07,0,0,1-.11-1.37A5.24,5.24,0,0,1,537.84,146.85Z" transform="translate(-68.22 -32.27)"/><path class="cls-6" d="M553.55,159.21l-11.65-.6s1.19,5.91,6.39,5.88C554.67,164.45,553.55,159.21,553.55,159.21Z" transform="translate(-68.22 -32.27)"/><path class="cls-15" d="M557.25,144a2.68,2.68,0,0,1-1.06,1.36,1.14,1.14,0,0,0-.91-.26c-.78.16-1.21,1.3-.95,2.56s1.09,2.14,1.87,2,1.21-1.3.95-2.55a3.56,3.56,0,0,0-.38-1A4.25,4.25,0,0,0,557.25,144Z" transform="translate(-68.22 -32.27)"/><path class="cls-6" d="M555.8,147.55a2.24,2.24,0,0,0,2.47-1.58,2.24,2.24,0,0,0-2.47,1.58Z" transform="translate(-68.22 -32.27)"/><path class="cls-6" d="M541.31,150.08a3.17,3.17,0,0,1-1.89.42,3.12,3.12,0,0,1-1.71-.92,3.17,3.17,0,0,1,1.89-.42A3.12,3.12,0,0,1,541.31,150.08Z" transform="translate(-68.22 -32.27)"/><path class="cls-9" d="M594,210.62l10.32,10.43-3.42,4.25a67.64,67.64,0,0,1-5.44,13.11c-3.28,5.58-15.9,5.57-20.15,4.84L564.9,253.58l-9.59-66.75,2.81-5.11s8.48,5.11,8.84,6.56,9.47,30,9.11,30.71,6.55-6.07,9.1-6.8,6.8,0,6.8,0Z" transform="translate(-68.22 -32.27)"/><path class="cls-8" d="M564.75,195.34c-.29-.68.83-1,1.11-.3,4.53,10.9,9.34,24.57.75,34.81a144.75,144.75,0,0,1-.21,14.73c0,.74-1.21.75-1.16,0a144.91,144.91,0,0,0,.21-15,.5.5,0,0,1,.35-.52C574.07,219.15,569.08,205.78,564.75,195.34Z" transform="translate(-68.22 -32.27)"/><path class="cls-8" d="M591.14,214.54a.3.3,0,0,1,.5-.13,7.74,7.74,0,0,1,1,1.76l.15-.08c.51-.3,1-.56,1.56-.82a.37.37,0,0,1,.38.64c-.47.37-1,.7-1.45,1l-.23.15c.16.38.33.76.51,1.13l.5-.28a15.15,15.15,0,0,1,1.75-.89c.43-.18.79.38.38.64s-1.1.72-1.64,1.08l-.47.34a1.76,1.76,0,0,0,.14.23,12.51,12.51,0,0,0,.81,1,4.39,4.39,0,0,1,.82-.5,9.34,9.34,0,0,0,1.4-1c.44-.38,1.07.24.65.65a10.5,10.5,0,0,1-1.48,1.18,4.32,4.32,0,0,1-.7.42,14,14,0,0,0,1.61,1.36,2,2,0,0,1,.67-.55l1.33-.94c.39-.27.74.36.37.63l-1.23.92a4.61,4.61,0,0,1-.53.4,16.45,16.45,0,0,0,1.56.93c.21.11.07.46-.15.38a12.81,12.81,0,0,1-5.79-4,24.49,24.49,0,0,1-1.83-2.69A4.71,4.71,0,0,1,591.14,214.54Z" transform="translate(-68.22 -32.27)"/><path class="cls-8" d="M574.47,222c.28-.56.61-1.27,1.33-1.28s1.11.87,1.41,1.46c.56,1.11,1.1,2.23,1.65,3.35.26.52-.51,1-.79.46s-.69-1.32-1-2c-.22-.43-.79-2-1.24-2s-.38.33-.53.66-.27.63-.41.94a2.81,2.81,0,0,1-1,1.36c-.18.12-.37,0-.4-.23C573.39,223.79,574.09,222.74,574.47,222Z" transform="translate(-68.22 -32.27)"/><path class="cls-14" d="M565.62,241l-3.3,45.27-.6,8.31a112.7,112.7,0,0,0,51.19-.37l-.21-2.42-4.45-51.1-37.39.27Z" transform="translate(-68.22 -32.27)"/><path class="cls-13" d="M565.62,241l-3.3,45.27-.6,8.31a112.7,112.7,0,0,0,51.19-.37l-.21-2.42c-12.26,2.15-25.72-1-33.77-10.37-5.21-6-7.73-14-8.48-21.95a95.52,95.52,0,0,1,.41-18.51Z" transform="translate(-68.22 -32.27)"/><path class="cls-15" d="M578.32,218.9c.26-.75.56-1.62.92-2.52,1.41-3.6,3.66-7.75,7.66-7.42a9.07,9.07,0,0,1,5.47,2.92l-.4.31a28.55,28.55,0,0,0-3.14-.31,5.89,5.89,0,0,0-2.51-.44c-2.26.09-2.67.64-3.4,2-.19.34-.38.72-.63,1.16a29.62,29.62,0,0,0-1.86,4.1,38.85,38.85,0,0,0-1.86,6.88,70.53,70.53,0,0,0-.71,15.77c.06,1.24-1.88,1.18-1.92-.06C575.59,233.81,575.8,226.07,578.32,218.9Z" transform="translate(-68.22 -32.27)"/><polygon class="cls-6" points="530.6 129.73 519.41 134.95 532.6 153.57 530.6 129.73"/><polygon class="cls-6" points="514.3 145.26 512.36 152.18 525.58 153.43 514.3 145.26"/><polygon class="cls-6" points="544.89 135.38 538.17 132.82 535.75 145.88 544.89 135.38"/><path class="cls-6" d="M545.17,192.76a1.85,1.85,0,1,0,1.78-1.91A1.84,1.84,0,0,0,545.17,192.76Z" transform="translate(-68.22 -32.27)"/><path class="cls-6" d="M545.46,201a1.85,1.85,0,1,0,1.78-1.91A1.85,1.85,0,0,0,545.46,201Z" transform="translate(-68.22 -32.27)"/><path class="cls-6" d="M545.17,209.24a1.85,1.85,0,1,0,1.78-1.91A1.85,1.85,0,0,0,545.17,209.24Z" transform="translate(-68.22 -32.27)"/><path class="cls-8" d="M521.4,269a102.76,102.76,0,0,1,10.91-1.59,113.37,113.37,0,0,1,23.87.29c.73.08.74,1.24,0,1.15a113.69,113.69,0,0,0-19-.64q-5.09.25-10.13,1c-1.61.23-3.22.5-4.82.81-.5.1-1.74.12-2.11.5-.74.09-.71.34.07.77a1.18,1.18,0,0,0,1.7.49c3,.26,6.38-.37,9.45-.42s6.31,0,9.46.08a180.32,180.32,0,0,1,19,1.74c.74.11.42,1.22-.3,1.12a176.62,176.62,0,0,0-25.37-1.82c-4.09,0-8.16.21-12.23.46-1.26.07-3.7.41-3.95-1.41S520.15,269.3,521.4,269Z" transform="translate(-68.22 -32.27)"/><path class="cls-9" d="M520.37,184.27s-5.41,3.24-6.57,5.26S509,206.65,509,206.65l-7.51,9.95s-5.59-14.52-9.44-16.8a29.15,29.15,0,0,0-8.67-3.08l-3.66-2.43L471,200.61l1.36,5s3.61,18.55,5.92,22.76c1.15,2.09,14.6,20.24,23.56,20.23,2.94,0,16.19-17.43,16.19-17.43L525,195.25Z" transform="translate(-68.22 -32.27)"/><path class="cls-8" d="M519.05,187.07a10.69,10.69,0,0,1,3.69,5.64.58.58,0,0,1-1.11.31,9.66,9.66,0,0,0-3.4-5.13C517.65,187.42,518.47,186.61,519.05,187.07Z" transform="translate(-68.22 -32.27)"/><path class="cls-8" d="M522.83,201.08c.1-.73,1.25-.74,1.16,0q-1.74,13.66-3.49,27.34c-.09.73-1.25.74-1.15,0Z" transform="translate(-68.22 -32.27)"/><path class="cls-8" d="M498.17,224.08q1.05-3.14,2.09-6.27a.59.59,0,0,1,1.06-.14,21.3,21.3,0,0,1,3,5.71c.24.71-.87,1-1.12.31a20.12,20.12,0,0,0-2.18-4.44l-1.71,5.13C499.05,225.08,497.93,224.78,498.17,224.08Z" transform="translate(-68.22 -32.27)"/><path class="cls-8" d="M474,204c.64-.58,1.3-1.13,2-1.66l-1.82-1.68c-.54-.51.27-1.32.82-.82l1.88,1.74.06.08c.4-.3.8-.61,1.22-.89a.56.56,0,0,1-.49-.14l-1.44-1.29c-.56-.5.26-1.31.81-.82l1.45,1.3a.49.49,0,0,1,.1.66c.54-.36,1.1-.71,1.66-1l-2-1.67c-.58-.47.24-1.28.81-.81l2.3,1.88c.31-.17.61-.35.93-.51.66-.34,1.24.66.58,1a36.6,36.6,0,0,0-8,5.49C474.24,205.3,473.42,204.48,474,204Z" transform="translate(-68.22 -32.27)"/><path class="cls-6" d="M522.71,168.3a34.89,34.89,0,0,0,5.14,1.64,13.18,13.18,0,0,1-3.88-4.52.59.59,0,0,1,.79-.8,27.4,27.4,0,0,0,6.94,2.89.58.58,0,0,1-.31,1.11,28.25,28.25,0,0,1-5.25-2,11.77,11.77,0,0,0,5.36,3.93c.57.21.54,1.22-.15,1.14l-.15,0h0a34.36,34.36,0,0,1-8.78-2.3C521.72,169.13,522,168,522.71,168.3Z" transform="translate(-68.22 -32.27)"/><rect class="cls-6" x="357.28" y="41.53" width="73.88" height="53.63" rx="4.99" ry="4.99"/><path class="cls-9" d="M442.11,102.28v3.56H439v-3.58a11.94,11.94,0,0,1-5.85-2.49l1.65-3.32a10.37,10.37,0,0,0,5.9,2.46c1.25,0,2-.46,2-1.32,0-2.77-8.57-1.09-8.57-6.86,0-2.57,1.86-4.36,4.83-4.85V82.46h3.09v3.4a11.92,11.92,0,0,1,5.09,1.74L445.6,91a12.65,12.65,0,0,0-5.26-1.75c-1,0-1.69.38-1.69,1.12,0,2.69,8.57,1.16,8.57,7C447.22,100.21,445,101.89,442.11,102.28Z" transform="translate(-68.22 -32.27)"/><rect class="cls-5" x="384.12" y="50.2" width="39.37" height="3.75"/><rect class="cls-5" x="384.12" y="56.77" width="39.37" height="3.75"/><rect class="cls-5" x="384.12" y="63.33" width="39.37" height="3.75"/><rect class="cls-5" x="384.12" y="69.9" width="20.61" height="3.75"/><path class="cls-10" d="M440,115.35a3.41,3.41,0,1,1-3.41-3.4A3.41,3.41,0,0,1,440,115.35Z" transform="translate(-68.22 -32.27)"/><path class="cls-10" d="M451.54,115.35a3.41,3.41,0,1,1-3.4-3.4A3.41,3.41,0,0,1,451.54,115.35Z" transform="translate(-68.22 -32.27)"/><path class="cls-10" d="M463.11,115.35a3.41,3.41,0,1,1-3.41-3.4A3.41,3.41,0,0,1,463.11,115.35Z" transform="translate(-68.22 -32.27)"/><polygon class="cls-6" points="431.16 83.08 438.19 106.57 412.39 94.93 431.16 83.08"/><path class="cls-9" d="M677.45,346.35a89.58,89.58,0,0,1-14.86,25.55c-.89,1.09-1.82,2.18-2.76,3.26q-3.29,3.75-6.93,7.28c-.75.73-1.5,1.45-2.27,2.16-1.35,1.25-2.71,2.47-4.11,3.66-.8.7-1.59,1.37-2.4,2-1.44,1.19-2.88,2.34-4.36,3.48q-3.4,2.61-7,5.06c-.55.48-1.09,1-1.65,1.42a1.84,1.84,0,0,0-.68.17,3.62,3.62,0,0,1-.41.27h0c-2.61,1.75-5.27,3.42-8,5q-5.58-.37-11.12-1.27c-3.46-.56-7-1.31-9.85-3.36s-4.76-5.75-3.75-9.1c.92-3,3.76-4.86,6.52-6.28a57.17,57.17,0,0,1,24.3-6.25,81.55,81.55,0,0,1-33.05-25.85c-2.67-3.56-5.11-7.44-6.12-11.78s-.48-9.23,2.33-12.7c5.28-6.54,15.65-5.44,23.27-1.92A54.63,54.63,0,0,1,640.71,353,117,117,0,0,1,635,308.79c.3-4.68,1-9.61,4-13.22,5-6,14.82-5.87,21.25-1.47s10.07,11.85,12.52,19.26A96.33,96.33,0,0,1,677.45,346.35Z" transform="translate(-68.22 -32.27)"/><path class="cls-8" d="M627.38,392.67l12.38,1.1q-3.4,2.61-7,5.06l2.71-2.31L618.66,395c-2-.16-1.32-3.22.66-3.05,1.29.11,2.57.21,3.85.34-1-1.35-2-2.7-3-4.05-1.22-1.62,1.4-3.33,2.63-1.73C624.29,388.58,625.84,390.61,627.38,392.67Z" transform="translate(-68.22 -32.27)"/><path class="cls-8" d="M643.59,385.32l2.93,2.94c-.8.7-1.59,1.37-2.4,2-.87-.88-1.74-1.75-2.6-2.63C640.08,386.24,642.18,383.88,643.59,385.32Z" transform="translate(-68.22 -32.27)"/><path class="cls-8" d="M650.34,379.85c.85.87,1.71,1.72,2.56,2.59-.75.73-1.5,1.45-2.27,2.16L636.17,370l-12.64,1.33c-2,.22-2.16-2.92-.15-3.13l10-1q-9.42-9.54-18.87-19.05l-12.23.49a1.56,1.56,0,0,1-.15-3.12l9.37-.39-1.07-1.1c-1.43-1.41.66-3.78,2.09-2.34q5.21,5.27,10.43,10.51c-.39-2.65-.77-5.32-1.15-8-.28-2,2.86-2.14,3.15-.15q.81,5.7,1.6,11.39a.77.77,0,0,1,0,.4q10.34,10.4,20.67,20.83l-.55-12.77a1.57,1.57,0,0,1,3.14-.15c.23,5.23.43,10.46.67,15.69A1.16,1.16,0,0,1,650.34,379.85Z" transform="translate(-68.22 -32.27)"/><path class="cls-8" d="M669.07,361.5l-6,9.08a1.81,1.81,0,0,1-.57.54l.09.78c-.89,1.09-1.82,2.18-2.76,3.26l-2.64-21.75a1.43,1.43,0,0,1-.55-.25l-11.22-7.68c-1.66-1.13.44-3.48,2.08-2.34,3.08,2.09,6.14,4.19,9.21,6.3L653.5,323q-5.22-2.42-10.48-4.81c-1.84-.85-.42-3.64,1.43-2.81,2.86,1.33,5.74,2.65,8.61,4l-.62-5.18c-.24-2,2.9-2.16,3.14-.16.89,7.41,1.81,14.82,2.7,22.21l7.88-10.3c1.24-1.62,3.57.47,2.35,2.07l-9.65,12.62a.1.1,0,0,0-.05.06q1.58,13,3.14,25.94c1.45-2.18,2.88-4.37,4.33-6.56C667.37,358.41,670.18,359.82,669.07,361.5Z" transform="translate(-68.22 -32.27)"/><path class="cls-6" d="M339.91,57.8c-8.19,0-8.2,12.71,0,12.71S348.1,57.8,339.91,57.8Z" transform="translate(-68.22 -32.27)"/><path class="cls-6" d="M435.94,145.65c-8.18,0-8.2,12.71,0,12.71S444.13,145.65,435.94,145.65Z" transform="translate(-68.22 -32.27)"/><path class="cls-6" d="M280.76,145.07c-8.19,0-8.2,12.72,0,12.72S289,145.07,280.76,145.07Z" transform="translate(-68.22 -32.27)"/><path class="cls-6" d="M314.28,133.22c-3,0-3,4.63,0,4.63S317.26,133.22,314.28,133.22Z" transform="translate(-68.22 -32.27)"/><path class="cls-6" d="M403.63,71.06c-3,0-3,4.63,0,4.63S406.61,71.06,403.63,71.06Z" transform="translate(-68.22 -32.27)"/><path class="cls-6" d="M468,144.78c-3,0-3,4.63,0,4.63S471,144.78,468,144.78Z" transform="translate(-68.22 -32.27)"/><path class="cls-6" d="M515.41,93.92c-3,0-3,4.63,0,4.63S518.39,93.92,515.41,93.92Z" transform="translate(-68.22 -32.27)"/><path class="cls-26" d="M407,200.67l-30.86,59.78a10.11,10.11,0,0,1-13.61,4.37l-52.88-27.3a10.11,10.11,0,0,1-4.33-13.62l40.31-78.09a10.1,10.1,0,0,1,13.6-4.34l34.54,17.83Z" transform="translate(-68.22 -32.27)"/><path class="cls-6" d="M413.58,198.46l-30.86,59.78a10.11,10.11,0,0,1-13.61,4.37l-52.88-27.3a10.11,10.11,0,0,1-4.33-13.62l40.31-78.09a10.11,10.11,0,0,1,13.6-4.34l34.54,17.83Z" transform="translate(-68.22 -32.27)"/><polygon class="cls-7" points="345.36 166.19 318.06 152.1 332.13 124.82 345.36 166.19"/><rect class="cls-19" x="345.82" y="172.94" width="28.32" height="17.13" transform="translate(55.13 -177.16) rotate(27.3)"/><rect class="cls-7" x="335.98" y="201.38" width="59.44" height="5.94" transform="translate(66.24 -177.23) rotate(27.3)"/><rect class="cls-7" x="330.81" y="211.39" width="59.44" height="5.94" transform="translate(70.26 -173.75) rotate(27.3)"/><rect class="cls-7" x="325.65" y="221.39" width="59.44" height="5.94" transform="translate(74.27 -170.27) rotate(27.3)"/><rect class="cls-7" x="320.48" y="231.4" width="59.44" height="5.94" transform="translate(78.28 -166.78) rotate(27.3)"/><text class="cls-27" transform="translate(92.33 258.65) scale(1.12 1)"><tspan xml:space="preserve">****  </tspan></text><text class="cls-27" transform="translate(135.32 258.65) scale(1.12 1)"><tspan xml:space="preserve">****  </tspan></text><text class="cls-27" transform="translate(180.55 258.65) scale(1.12 1)"><tspan xml:space="preserve">****  </tspan></text><text class="cls-27" transform="translate(224.13 258.65) scale(1.12 1)"><tspan xml:space="preserve">****  </tspan></text></g></g></svg>