<svg width="330" height="73" viewBox="0 0 330 73" fill="none" xmlns="http://www.w3.org/2000/svg">
<mask id="mask0" mask-type="alpha" maskUnits="userSpaceOnUse" x="0" y="0" width="100" height="72">
<path d="M93.3684 0H6.63158C2.96906 0 0 2.96906 0 6.63158V64.797C0 68.4595 2.96906 71.4286 6.63158 71.4286H93.3684C97.0309 71.4286 100 68.4595 100 64.797V6.63158C100 2.96906 97.0309 0 93.3684 0Z" fill="white"/>
</mask>
<g mask="url(#mask0)">
<path d="M93.3684 2H6.63158C2.96906 2 0 4.96906 0 8.63158V66.797C0 70.4595 2.96906 73.4286 6.63158 73.4286H93.3684C97.0309 73.4286 100 70.4595 100 66.797V8.63158C100 4.96906 97.0309 2 93.3684 2Z" fill="white"/>
<path fill-rule="evenodd" clip-rule="evenodd" d="M8.57141 46.8527H31.4125V24.2858H8.57141V46.8527Z" fill="#820024"/>
<path fill-rule="evenodd" clip-rule="evenodd" d="M23.7958 28.5501H11.6578L17.0327 35.5683H29.1718L23.7958 28.5501Z" fill="white"/>
<path fill-rule="evenodd" clip-rule="evenodd" d="M29.1717 35.5684H17.0326L11.6577 42.5861H23.7957L29.1717 35.5684Z" fill="#EE3124"/>
<path fill-rule="evenodd" clip-rule="evenodd" d="M86.3979 40.2824H83.4382V36.8038H86.3979C87.7785 36.8038 88.2724 37.6979 88.2724 38.5341C88.2724 39.3798 87.7785 40.2824 86.3979 40.2824ZM83.4382 30.8541H86.2096C87.3723 30.8541 88.0647 31.46 88.0647 32.4817C88.0647 33.5002 87.3723 34.1056 86.2096 34.1056H83.4382V30.8541ZM89.3318 35.3814C89.9958 35.0215 91.0847 34.0078 91.0847 32.3568C91.0847 29.7782 89.3044 28.1734 86.4377 28.1734H80.4166V42.9604H86.6911C89.5287 42.9604 91.2929 41.3221 91.2929 38.6786C91.2929 36.6927 90.1136 35.7715 89.3318 35.3814ZM68.6584 37.6208C68.5449 37.4289 63.3722 28.1442 63.3722 28.1442H60.4168V42.9322H63.4368V34.0982C63.6665 34.4852 68.6584 43.0518 68.6584 43.0518C68.6584 43.0518 73.6272 34.4862 73.8488 34.1003V42.9322H76.872V28.1442H73.9182C73.9182 28.1442 68.7639 37.4289 68.6584 37.6208ZM53.6882 42.9604H56.7189V28.1734H53.6882V42.9604ZM48.6839 39.3984C47.8026 40.0937 46.7357 40.4594 45.6112 40.4594C42.8807 40.4594 40.7571 38.3119 40.7571 35.5685C40.7571 32.8246 42.8807 30.6755 45.6112 30.6755C46.7357 30.6755 47.8026 31.0417 48.6839 31.738L48.7259 31.771L50.8318 29.6915L50.7839 29.6474C49.343 28.4174 47.5094 27.7386 45.6112 27.7386C41.1934 27.7386 37.5994 31.2517 37.5994 35.5685C37.5994 39.8842 41.1934 43.3963 45.6112 43.3963C47.5094 43.3963 49.343 42.719 50.7839 41.489L50.8318 41.4428L48.7259 39.3654L48.6839 39.3984Z" fill="#820024"/>
</g>
<mask id="mask1" mask-type="alpha" maskUnits="userSpaceOnUse" x="115" y="1" width="100" height="72">
<path d="M208.368 1H121.632C117.969 1 115 3.96906 115 7.63158V65.797C115 69.4595 117.969 72.4286 121.632 72.4286H208.368C212.031 72.4286 215 69.4595 215 65.797V7.63158C215 3.96906 212.031 1 208.368 1Z" fill="white"/>
</mask>
<g mask="url(#mask1)">
<path d="M208.368 1H121.632C117.969 1 115 3.96906 115 7.63158V65.797C115 69.4595 117.969 72.4286 121.632 72.4286H208.368C212.031 72.4286 215 69.4595 215 65.797V7.63158C215 3.96906 212.031 1 208.368 1Z" fill="#0060AF"/>
<path fill-rule="evenodd" clip-rule="evenodd" d="M135.567 43.759L135.2 43.7605C135.179 42.3433 134.373 41.124 133.386 40.4859C132.58 39.9646 131.467 39.5951 129.561 39.151C127.778 38.7375 127.299 36.9753 127.835 35.6504C128.413 34.2288 129.491 33.7346 130.777 33.6295C132.634 33.4198 135.575 36.1094 135.553 39.9223C135.579 40.238 135.567 42.8004 135.567 43.759ZM134.771 43.7605L134.386 43.759C134.177 42.8003 132.859 42.3085 132.026 42.4781C131.543 42.5748 130.536 42.7665 129.74 42.7364C128.436 42.6913 127.57 41.5399 127.471 40.8414C127.386 40.2375 127.474 39.2045 127.958 38.7451C128.14 39.1306 128.731 39.4331 129.296 39.5692C131.123 40.0062 132.255 40.3451 133.099 40.8612C134.049 41.4451 134.777 42.5317 134.771 43.7605ZM136.241 27.687H136.132C138.341 27.687 140.25 29.0616 140.241 31.44C140.237 33.4401 138.533 34.5109 137.918 35.2757C136.998 36.4282 136.482 37.7402 136.449 39.8282C136.424 41.4128 136.446 43.1542 136.454 43.7624H135.966C135.957 43.1811 135.959 41.5407 135.919 39.8795C135.867 37.7923 135.369 36.4282 134.449 35.2757C133.84 34.5109 132.134 33.4401 132.127 31.44C132.12 29.0616 134.03 27.687 136.241 27.687ZM136.802 43.759C136.802 42.8004 136.791 40.238 136.815 39.9223C136.794 36.1094 139.733 33.4198 141.592 33.6295C142.878 33.7346 143.954 34.2288 144.534 35.6504C145.07 36.9753 144.588 38.7375 142.807 39.151C140.9 39.5951 139.788 39.9646 138.981 40.4859C137.995 41.124 137.245 42.3433 137.222 43.7605L136.802 43.759ZM137.598 43.7605C137.591 42.5317 138.319 41.4451 139.267 40.8612C140.114 40.3451 141.248 40.0062 143.073 39.5692C143.639 39.4331 144.229 39.1306 144.408 38.7451C144.894 39.2045 144.982 40.2375 144.897 40.8414C144.796 41.5399 143.932 42.6913 142.631 42.7364C141.835 42.7665 140.822 42.5748 140.342 42.4781C139.512 42.3085 138.19 42.8003 137.98 43.759L137.598 43.7605Z" fill="white"/>
<path fill-rule="evenodd" clip-rule="evenodd" d="M136.328 49.5547C132.967 49.5547 129.513 48.7743 126.063 47.2309L125.979 47.1916L125.938 47.1103C124.39 44.0299 123.571 40.661 123.571 37.3646C123.571 34.073 124.357 30.848 125.906 27.7717L125.948 27.69L126.035 27.6492C129.226 26.2242 132.658 25.5026 136.241 25.5026C139.578 25.5026 143.142 26.3059 146.546 27.8303L146.633 27.8669L146.674 27.9502C148.251 31.0874 149.083 34.4557 149.083 37.6977C149.083 40.9266 148.284 44.1546 146.705 47.2899L146.663 47.3721L146.576 47.4102C143.433 48.8125 139.889 49.5547 136.328 49.5547ZM126.383 46.8085C129.734 48.2947 133.076 49.0449 136.328 49.0449C139.777 49.0449 143.206 48.3344 146.259 46.9874C147.776 43.9493 148.545 40.8225 148.545 37.6977C148.545 34.5598 147.742 31.2962 146.225 28.2512C142.921 26.7873 139.471 26.011 136.241 26.011C132.773 26.011 129.448 26.7045 126.354 28.0727C124.868 31.0542 124.112 34.1786 124.112 37.3646C124.112 40.5562 124.898 43.8213 126.383 46.8085Z" fill="white"/>
<path fill-rule="evenodd" clip-rule="evenodd" d="M138.28 47.7275L137.998 45.7814L138.681 45.6838C138.847 45.6626 139.049 45.6899 139.13 45.7879C139.219 45.8905 139.247 45.9752 139.264 46.1097C139.29 46.2762 139.239 46.4683 139.04 46.5642V46.57C139.262 46.57 139.396 46.7203 139.435 46.974C139.441 47.0278 139.458 47.157 139.441 47.265C139.396 47.5219 139.233 47.6048 138.959 47.641L138.28 47.7275ZM138.72 47.3793C138.801 47.3682 138.883 47.3641 138.947 47.3255C139.046 47.265 139.037 47.1357 139.023 47.0395C138.989 46.8285 138.93 46.748 138.693 46.7812L138.543 46.8029L138.638 47.3899L138.72 47.3793ZM138.577 46.4798C138.667 46.4662 138.79 46.4557 138.841 46.3749C138.868 46.3209 138.902 46.2779 138.879 46.1578C138.851 46.0156 138.801 45.9271 138.609 45.9614L138.431 45.9885L138.501 46.4872L138.577 46.4798Z" fill="white"/>
<path fill-rule="evenodd" clip-rule="evenodd" d="M141.239 46.5571C141.244 46.5933 141.25 46.6337 141.252 46.6699C141.308 47.0246 141.239 47.3187 140.815 47.3995C140.19 47.513 140.07 47.1467 139.96 46.6337L139.901 46.3559C139.815 45.8652 139.778 45.4936 140.388 45.3788C140.732 45.3199 140.959 45.4489 141.053 45.7715C141.068 45.8197 141.087 45.8672 141.094 45.9157L140.719 45.9886C140.676 45.8672 140.619 45.6505 140.45 45.6688C140.148 45.7032 140.248 46.0575 140.279 46.2059L140.391 46.7386C140.425 46.8997 140.492 47.1571 140.754 47.1075C140.966 47.0674 140.874 46.7555 140.855 46.6276" fill="white"/>
<path fill-rule="evenodd" clip-rule="evenodd" d="M141.839 47.146L141.71 45.132L142.213 44.9874L143.267 46.739L142.871 46.8507L142.621 46.4055L142.182 46.53L142.238 47.0361L141.839 47.146ZM142.145 46.2047L142.462 46.118L142.041 45.3031L142.145 46.2047Z" fill="white"/>
<path fill-rule="evenodd" clip-rule="evenodd" d="M129.42 45.6233C129.577 45.1486 129.718 44.7989 130.319 44.9541C130.64 45.0389 130.839 45.1723 130.83 45.5242C130.828 45.6025 130.801 45.6825 130.783 45.7597L130.409 45.6625C130.458 45.468 130.489 45.3139 130.235 45.2401C129.942 45.1642 129.87 45.4999 129.83 45.6448L129.677 46.1725C129.629 46.3293 129.571 46.5884 129.83 46.6554C130.043 46.7094 130.172 46.5121 130.25 46.2237L129.988 46.1582L130.079 45.8529L130.693 46.0392L130.402 47.0568L130.119 46.9844L130.182 46.7693H130.174C130.044 46.9453 129.885 46.9638 129.746 46.9384C129.131 46.7818 129.195 46.403 129.342 45.8969" fill="white"/>
<path fill-rule="evenodd" clip-rule="evenodd" d="M131.708 46.4828L131.523 47.3107L131.106 47.2259L131.55 45.2928L132.261 45.4439C132.677 45.5287 132.803 45.7031 132.744 46.0626C132.71 46.2688 132.602 46.4908 132.339 46.4728L132.336 46.4696C132.559 46.5429 132.578 46.6489 132.539 46.8317C132.522 46.9098 132.406 47.382 132.486 47.4584L132.489 47.5165L132.057 47.4102C132.04 47.2795 132.101 47.044 132.125 46.9134C132.149 46.7981 132.188 46.6355 132.064 46.5745C131.967 46.5255 131.93 46.5279 131.82 46.5043L131.708 46.4828ZM131.779 46.1834L132.06 46.2547C132.23 46.2781 132.325 46.1948 132.359 46.0006C132.389 45.8225 132.35 45.7531 132.197 45.7187L131.896 45.661L131.779 46.1834Z" fill="white"/>
<path fill-rule="evenodd" clip-rule="evenodd" d="M134.382 45.7245L134.794 45.7696L134.616 47.1287C134.53 47.5596 134.353 47.7478 133.851 47.689C133.339 47.6279 133.218 47.4085 133.248 46.9741L133.427 45.6163L133.843 45.661L133.665 46.9884C133.645 47.1326 133.61 47.3462 133.882 47.3722C134.123 47.3896 134.178 47.2387 134.206 47.0513" fill="white"/>
<path fill-rule="evenodd" clip-rule="evenodd" d="M135.248 47.7633L135.373 45.82L136.164 45.8523C136.539 45.8699 136.636 46.1578 136.625 46.4328C136.614 46.6 136.559 46.7867 136.404 46.8879C136.277 46.974 136.114 46.9944 135.963 46.9874L135.705 46.974L135.654 47.7884L135.248 47.7633ZM135.717 46.6776L135.927 46.6886C136.097 46.6945 136.21 46.631 136.225 46.3951C136.233 46.1687 136.142 46.1301 135.921 46.121L135.755 46.1155L135.717 46.6776Z" fill="white"/>
<path fill-rule="evenodd" clip-rule="evenodd" d="M191.106 29.5652L187.958 34.951C186.77 34.0414 185.319 33.3722 183.468 33.3722C179.088 33.3722 177.308 36.45 177.308 38.6181C177.308 40.2277 178.426 42.6021 182.324 42.6021C183.96 42.6021 186.286 41.5294 186.955 41.0411L183.842 47.2894C182.358 47.5685 181.871 47.7415 180.615 47.7782C173.638 47.9744 170.82 43.9345 170.822 39.8068C170.826 34.3497 175.973 27.7132 184.505 27.7132C185.028 27.7132 185.667 27.8839 186.214 28.0727L186.767 27.4064" fill="white"/>
<path fill-rule="evenodd" clip-rule="evenodd" d="M204.093 27.5754L204.985 47.1495H198.351L198.348 43.7927H193.824L192.336 47.1495H185.141L192.663 33.172L190.967 33.1616L194.189 27.5754H204.093ZM198.304 33.5636L195.747 39.2571H198.382L198.304 33.5636Z" fill="white"/>
<path fill-rule="evenodd" clip-rule="evenodd" d="M166.634 27.5754C169.919 27.5928 171.775 29.2737 171.775 31.7016C171.775 33.9403 169.817 35.9215 167.668 36.946C169.881 37.713 170.072 39.5951 170.072 40.9265C170.072 44.1437 166.648 47.1495 162.197 47.1495H152.489L156.276 33.3667L154.72 33.3583L157.9 27.5754C157.9 27.5754 163.963 27.5581 166.634 27.5754ZM163.411 35.5117C164.09 35.5117 165.29 35.3495 165.59 34.1098C165.919 32.7639 164.793 32.7277 164.253 32.7277L162.323 32.7199L161.65 35.5117H163.411ZM160.682 38.9706L159.794 42.1876H162.066C162.96 42.1876 164.179 41.7691 164.477 40.7223C164.772 39.6725 163.92 38.9706 163.03 38.9706H160.682Z" fill="white"/>
</g>
<path d="M323.368 1H236.632C232.969 1 230 3.96906 230 7.63158V65.797C230 69.4595 232.969 72.4286 236.632 72.4286H323.368C327.031 72.4286 330 69.4595 330 65.797V7.63158C330 3.96906 327.031 1 323.368 1Z" fill="white"/>
<path d="M265.207 47.1858C265.197 47.1582 265.193 46.6177 265.198 45.9845L265.209 44.8333L265.467 44.8044C266.65 44.6718 267.298 44.423 267.81 43.9035C268.084 43.6264 268.269 43.3035 268.394 42.8859C268.461 42.6633 268.466 42.2609 268.476 36.1857L268.487 29.7223H269.658H270.828L270.828 36.1658C270.828 43.0718 270.832 42.9313 270.63 43.6617C270.518 44.0645 270.167 44.7719 269.911 45.1113C269.04 46.2625 267.623 46.9956 265.884 47.1944C265.408 47.2488 265.23 47.2465 265.207 47.1858L265.207 47.1858ZM245.749 46.3375C244.066 46.2035 242.715 45.8471 241.401 45.1896C238.509 43.7434 236.896 41.0755 237.005 37.9231C237.04 36.9322 237.222 36.1042 237.607 35.1826C238.39 33.3109 239.951 31.657 241.842 30.6967C242.273 30.4775 242.317 30.4432 242.764 29.9758C243.498 29.2088 244.189 28.6914 245.146 28.192C246.237 27.623 247.399 27.2546 248.728 27.0555C249.32 26.9668 250.906 26.988 251.587 27.0936C252.732 27.2712 253.671 27.5593 254.655 28.0347C257.398 29.3601 259.324 31.8103 259.924 34.7379C260.082 35.509 260.123 35.9232 260.123 36.7715C260.124 37.9007 260.003 38.6795 259.669 39.6971C258.892 42.0621 257.183 44.0199 254.926 45.13C254.051 45.5604 253.295 45.809 252.322 45.986C251.77 46.0865 250.199 46.1112 249.548 46.0296C249.06 45.9684 249.056 45.9685 248.655 46.0663C247.848 46.2626 247.368 46.3282 246.643 46.341C246.261 46.3478 245.859 46.3462 245.749 46.3375V46.3375ZM246.752 45.5032C246.932 45.455 246.835 45.3666 246.345 45.1342C243.615 43.8381 241.698 41.4594 240.965 38.4585C240.729 37.4897 240.643 36.7673 240.642 35.7389C240.641 34.6264 240.783 33.7115 241.08 32.9066C241.147 32.7249 241.202 32.5686 241.202 32.5591C241.202 32.5497 241.167 32.542 241.125 32.542C241.038 32.542 240.725 32.8354 240.425 33.1992C239.639 34.1505 239.145 35.359 238.955 36.7966C238.865 37.4848 238.896 38.7876 239.018 39.3528C239.684 42.4543 242.195 44.9658 245.134 45.4691C245.44 45.5216 246.593 45.5459 246.752 45.5032V45.5032ZM249.324 44.7601C251.586 43.6622 253.225 41.6528 253.715 39.379C253.833 38.8325 253.862 37.6984 253.776 37.0417C253.624 35.8917 253.248 34.8588 252.65 33.9498C252.246 33.3355 251.806 32.8728 251.806 33.062C251.806 33.0859 251.867 33.287 251.943 33.5088C252.206 34.2842 252.26 34.6406 252.261 35.6198C252.263 36.5621 252.228 36.8269 252.019 37.4542C251.354 39.4507 249.54 40.9137 247.371 41.2027C246.87 41.2694 245.775 41.2275 245.288 41.1231C244.291 40.9094 243.407 40.4829 242.678 39.8641C242.298 39.5413 242.246 39.5827 242.45 40.0465C243.106 41.5373 244.291 42.92 245.73 43.8715C246.627 44.465 248.141 45.0758 248.617 45.036C248.72 45.0274 248.992 44.9215 249.324 44.7601ZM252.033 44.9534C255.516 44.0203 258.141 40.8035 258.514 37.0128C258.723 34.8878 258.126 32.8378 256.773 31.0407C255.166 28.9065 252.78 27.7141 250.352 27.832C249.462 27.8752 248.515 28.0642 247.715 28.3586C246.988 28.6263 245.783 29.2755 245.517 29.5433C245.385 29.676 245.511 29.7094 246.236 29.7333C247.151 29.7635 247.87 29.9042 248.668 30.2097C248.81 30.264 249.329 30.5055 249.82 30.7464C251.117 31.3823 251.985 31.9774 252.808 32.7966C253.926 33.9098 254.647 35.1562 255.001 36.5885C255.18 37.3095 255.201 37.5235 255.2 38.5387C255.199 39.3983 255.188 39.5603 255.108 39.9287C254.856 41.0945 254.328 42.2048 253.59 43.123C253.249 43.5471 252.469 44.2807 252.047 44.5751C251.537 44.9311 251.511 44.953 251.544 45.0056C251.583 45.0688 251.615 45.0654 252.033 44.9534V44.9534ZM247.378 40.5252C248.201 40.3624 248.833 40.0135 249.463 39.3752C250.046 38.7838 250.385 38.1909 250.634 37.3279C250.851 36.5746 250.928 35.5389 250.816 34.8851C250.652 33.9332 250.173 32.9991 249.463 32.2494C249.036 31.7991 248.605 31.4776 248.095 31.2302C247.617 30.9982 247.22 30.8843 246.729 30.839C245.553 30.7305 244.441 31.122 243.562 31.9535C242.499 32.9586 241.97 34.4232 242.115 35.9573C242.252 37.4073 242.812 38.6323 243.729 39.4884C244.761 40.4525 245.985 40.8004 247.378 40.5252V40.5252ZM277.798 42.2442C277.711 42.2364 277.448 42.1944 277.215 42.1508C275.614 41.8524 274.473 41.0115 273.769 39.611C273.26 38.6006 273.061 37.6727 273.026 36.1559C272.995 34.7864 273.11 33.8599 273.436 32.8651C274.183 30.5829 275.875 29.3908 278.215 29.4968C279.256 29.544 280.055 29.7997 280.797 30.3222C281.784 31.0179 282.521 32.2467 282.82 33.6937C282.938 34.2668 282.985 34.9502 282.939 35.4052C282.835 36.4118 282.426 36.9043 281.543 37.0859C281.281 37.1397 280.837 37.1488 278.465 37.1493C276.941 37.1497 275.653 37.1606 275.604 37.1738C275.496 37.2026 275.49 37.2993 275.573 37.6219C275.734 38.2418 276.069 38.8218 276.49 39.2075C277.573 40.1992 279.407 40.1939 281.213 39.1938C281.431 39.073 281.629 38.9815 281.652 38.9905C281.723 39.0176 282.827 40.7712 282.807 40.8242C282.78 40.8947 282.12 41.2966 281.631 41.5405C280.623 42.0427 279.61 42.2766 278.493 42.2643C278.198 42.2611 277.886 42.252 277.798 42.2442V42.2442ZM280.42 34.7904C280.493 34.7369 280.493 34.7249 280.426 34.3444C280.339 33.8553 280.16 33.3149 279.973 32.9788C279.895 32.8368 279.703 32.5942 279.549 32.4397C279.11 32.0007 278.664 31.8271 277.977 31.8271C277.357 31.8271 276.896 31.9894 276.491 32.3502C276.034 32.7577 275.73 33.3702 275.56 34.2243C275.461 34.7238 275.46 34.7363 275.534 34.7902C275.646 34.872 280.308 34.8722 280.42 34.7904L280.42 34.7904ZM306.511 42.2092C304.505 41.9013 303.032 40.4535 302.614 38.3791C302.553 38.0773 302.545 37.6057 302.531 33.8426L302.516 29.6429H303.708H304.901L304.912 33.8029L304.922 37.9629L305.011 38.221C305.29 39.0362 305.945 39.665 306.729 39.8703C307.04 39.9515 307.617 39.9618 307.921 39.8916C308.329 39.7972 308.767 39.5555 309.061 39.2617C309.369 38.9546 309.548 38.6721 309.701 38.2541L309.807 37.9629L309.818 33.8029L309.829 29.6429H310.999H312.17V33.8313C312.17 37.792 312.166 38.0409 312.094 38.4112C311.812 39.867 310.969 41.0522 309.748 41.71C308.87 42.183 307.608 42.3776 306.511 42.2092H306.511ZM317.611 42.2136C316.55 42.0576 315.731 41.7933 314.512 41.2132C314.207 41.068 313.957 40.9331 313.957 40.9133C313.957 40.8699 314.819 38.7755 314.85 38.7451C314.861 38.7334 315.188 38.877 315.576 39.0643C316.447 39.4852 316.903 39.6651 317.492 39.8198C317.891 39.9246 318.014 39.9396 318.465 39.938C319.762 39.9334 320.629 39.3805 320.628 38.5586C320.626 37.8188 319.953 37.35 318.289 36.931C316.31 36.4327 315.043 35.5809 314.515 34.3941C314.3 33.9113 314.257 33.6843 314.256 33.0185C314.255 32.3057 314.324 31.991 314.596 31.4684C314.928 30.8288 315.396 30.3965 316.161 30.0197C317.574 29.3245 319.19 29.3123 321.207 29.9818C321.932 30.2223 322.467 30.4711 322.435 30.5529C322.421 30.5875 322.257 31.0448 322.071 31.569C321.884 32.0932 321.718 32.537 321.701 32.5552C321.685 32.5733 321.468 32.5077 321.219 32.4094C319.315 31.6563 317.631 31.6251 316.921 32.3295C316.712 32.5362 316.619 32.7506 316.622 33.0185C316.626 33.4367 316.818 33.7414 317.266 34.0408C317.63 34.2848 317.994 34.4285 318.9 34.6871C320.127 35.0374 320.799 35.3186 321.452 35.7558C321.87 36.0355 322.369 36.5444 322.586 36.9137C322.91 37.4646 323.058 38.2352 322.979 38.9593C322.795 40.6413 321.642 41.7589 319.68 42.1573C319.17 42.2609 318.125 42.2893 317.611 42.2136V42.2136ZM285.152 42.1267C285.137 42.1118 285.125 39.8361 285.125 37.0695V32.0393L285.252 31.8439C285.322 31.7364 285.594 31.4332 285.858 31.1701C286.919 30.1098 288.098 29.57 289.514 29.4961C290.954 29.4209 292.402 29.9658 293.28 30.9133C293.753 31.4246 294.127 32.0652 294.34 32.7303C294.581 33.4846 294.577 33.3871 294.577 37.9687V42.1538L293.415 42.1433L292.254 42.1328L292.234 37.9827C292.211 33.3467 292.235 33.7204 291.924 33.1178C291.729 32.7397 291.237 32.2467 290.884 32.0767C290.45 31.868 290.178 31.8166 289.613 31.8372C289.219 31.8516 289.051 31.8768 288.799 31.9594C288.442 32.0764 287.974 32.3395 287.707 32.5745L287.528 32.7313L287.508 37.432L287.488 42.1328L286.334 42.1433C285.699 42.1491 285.167 42.1415 285.152 42.1267V42.1267ZM297.463 42.1267C297.449 42.1118 297.436 39.2969 297.436 35.8713V29.6429H298.628H299.819L299.809 35.8878L299.799 42.1328L298.645 42.1433C298.01 42.1491 297.478 42.1415 297.463 42.1267L297.463 42.1267Z" fill="#00AAE7"/>
</svg>
