<svg width="330" height="73" viewBox="0 0 330 73" fill="none" xmlns="http://www.w3.org/2000/svg">
<mask id="mask0" mask-type="alpha" maskUnits="userSpaceOnUse" x="115" y="1" width="100" height="72">
<path d="M208.368 1H121.632C117.969 1 115 3.96906 115 7.63158V65.797C115 69.4595 117.969 72.4286 121.632 72.4286H208.368C212.031 72.4286 215 69.4595 215 65.797V7.63158C215 3.96906 212.031 1 208.368 1Z" fill="white"/>
</mask>
<g mask="url(#mask0)">
<path d="M208.368 1H121.632C117.969 1 115 3.96906 115 7.63158V65.797C115 69.4595 117.969 72.4286 121.632 72.4286H208.368C212.031 72.4286 215 69.4595 215 65.797V7.63158C215 3.96906 212.031 1 208.368 1Z" fill="#003D79"/>
<path fill-rule="evenodd" clip-rule="evenodd" d="M122.233 38.83C122.233 37.5491 122.211 36.4741 122.143 35.5155H124.491L124.601 37.1623H124.667C125.199 36.2921 126.172 35.263 127.987 35.263C129.404 35.263 130.51 36.088 130.974 37.3221H131.02C131.397 36.705 131.838 36.2481 132.347 35.9268C132.945 35.4929 133.631 35.263 134.516 35.263C136.309 35.263 138.123 36.5202 138.123 40.0873V46.648H135.467V40.4994C135.467 38.6478 134.848 37.5491 133.543 37.5491C132.612 37.5491 131.925 38.2362 131.639 39.0367C131.572 39.3102 131.506 39.6534 131.506 39.9712V46.648H128.849V40.2012C128.849 38.6478 128.253 37.5491 126.991 37.5491C125.973 37.5491 125.288 38.3734 125.043 39.149C124.932 39.4251 124.887 39.7443 124.887 40.0637V46.648H122.233V38.83Z" fill="white"/>
<path fill-rule="evenodd" clip-rule="evenodd" d="M148.469 43.974C148.469 44.9793 148.513 45.9607 148.624 46.6485H146.167L145.99 45.4143H145.923C145.259 46.2839 144.131 46.9001 142.736 46.9001C140.567 46.9001 139.35 45.2783 139.35 43.5856C139.35 40.7727 141.762 39.3566 145.746 39.3792V39.1956C145.746 38.4638 145.458 37.253 143.555 37.253C142.492 37.253 141.385 37.5962 140.655 38.0754L140.123 36.2481C140.921 35.7441 142.317 35.2635 144.02 35.2635C147.474 35.2635 148.469 37.5281 148.469 39.9503V43.974ZM145.812 41.2082C143.887 41.1621 142.051 41.5963 142.051 43.2883C142.051 44.3845 142.736 44.8885 143.6 44.8885C144.683 44.8885 145.481 44.1567 145.724 43.3568C145.79 43.1511 145.812 42.9216 145.812 42.7394V41.2082Z" fill="white"/>
<path fill-rule="evenodd" clip-rule="evenodd" d="M150.351 38.83C150.351 37.5491 150.327 36.4741 150.262 35.5155H152.651L152.784 37.1842H152.85C153.315 36.3166 154.488 35.263 156.28 35.263C158.162 35.263 160.11 36.5202 160.11 40.0416V46.648H157.388V40.3624C157.388 38.7611 156.812 37.5491 155.329 37.5491C154.245 37.5491 153.492 38.3494 153.204 39.1956C153.117 39.4477 153.094 39.7914 153.094 40.1092V46.648H150.351V38.83Z" fill="white"/>
<path fill-rule="evenodd" clip-rule="evenodd" d="M171.912 31.0424V43.5155C171.912 44.6583 171.956 45.895 172 46.6485H169.565L169.456 44.8885H169.411C168.769 46.1236 167.461 46.9001 165.892 46.9001C163.325 46.9001 161.288 44.6373 161.288 41.2082C161.266 37.4816 163.523 35.2635 166.113 35.2635C167.595 35.2635 168.658 35.9044 169.144 36.7281H169.189V31.0424H171.912ZM169.189 40.1549C169.189 39.9286 169.166 39.653 169.124 39.4251C168.88 38.3278 168.016 37.4357 166.777 37.4357C165.029 37.4357 164.055 39.0368 164.055 41.1171C164.055 43.1511 165.029 44.6373 166.755 44.6373C167.861 44.6373 168.835 43.8603 169.101 42.649C169.166 42.3965 169.189 42.1225 169.189 41.8242V40.1549Z" fill="white"/>
<path fill-rule="evenodd" clip-rule="evenodd" d="M173.836 46.6479H176.583V35.5162H173.836V46.6479Z" fill="white"/>
<path fill-rule="evenodd" clip-rule="evenodd" d="M178.507 39.1042C178.507 37.5961 178.484 36.5201 178.417 35.5153H180.786L180.873 37.6406H180.964C181.495 36.0633 182.757 35.5153 183.907 35.5153C184.172 35.5153 184.327 35.4684 184.549 35.5153V37.9849C184.327 37.9393 184.084 37.8936 183.752 37.8936C182.446 37.8936 181.56 38.7615 181.317 40.018C181.274 40.2696 181.229 40.5681 181.229 40.8896V46.6484H178.507V39.1042Z" fill="white"/>
<path fill-rule="evenodd" clip-rule="evenodd" d="M185.81 46.6479H188.553V35.5162H185.81V46.6479Z" fill="white"/>
<path fill-rule="evenodd" clip-rule="evenodd" d="M185.161 22.0566C183.514 23.0422 179.627 25.3445 178.176 26.2019C177.292 26.6672 175.244 26.8704 174.086 25.2572C174.065 25.2281 172.545 23.2665 172.483 23.1927C172.44 23.1405 171.457 21.6351 169.268 21.5881C168.944 21.5801 167.336 21.5713 165.767 22.4925C163.681 23.7234 158.83 26.588 158.83 26.588C158.829 26.588 158.829 26.5906 158.826 26.5906C156.832 27.769 155.279 28.6865 155.279 28.6865L157.114 31.0153C157.973 32.1166 159.909 32.9686 161.589 31.9729C161.589 31.9729 167.794 28.2613 167.817 28.2506C170.5 26.7304 172.571 26.7304 173.945 27.2961C175.179 27.8345 176.252 29.1761 176.252 29.1761C176.252 29.1761 177.655 30.9715 177.902 31.2855C178.7 32.3002 180.021 31.9016 180.021 31.9016C180.021 31.9016 180.51 31.8442 181.248 31.3918C181.248 31.3918 187.259 27.7921 187.262 27.7909C189.171 26.6344 190.921 26.4184 191.816 26.5034C194.618 26.7665 195.488 28.7884 196.703 30.1989C197.419 31.0285 198.064 31.4997 199.052 31.4759C199.7 31.4617 200.433 31.0553 200.541 30.982L207.738 26.6917C207.738 26.6917 207 25.5428 205.488 23.7553C204.134 22.1605 202.696 22.8821 201.55 23.4685C201.068 23.7146 199.323 24.9135 197.595 25.7499C196.363 26.3457 194.594 26.1665 193.624 24.9289C193.566 24.8536 191.997 22.8919 191.832 22.6505C191.199 21.8313 189.964 21.0976 188.38 21.0976C187.418 21.0976 186.325 21.3688 185.161 22.0566Z" fill="url(#paint0_linear)"/>
</g>
<mask id="mask1" mask-type="alpha" maskUnits="userSpaceOnUse" x="0" y="0" width="100" height="72">
<path d="M93.3684 0H6.63158C2.96906 0 0 2.96906 0 6.63158V64.797C0 68.4595 2.96906 71.4286 6.63158 71.4286H93.3684C97.0309 71.4286 100 68.4595 100 64.797V6.63158C100 2.96906 97.0309 0 93.3684 0Z" fill="white"/>
</mask>
<g mask="url(#mask1)">
<path d="M93.3684 0H6.63158C2.96906 0 0 2.96906 0 6.63158V64.797C0 68.4595 2.96906 71.4286 6.63158 71.4286H93.3684C97.0309 71.4286 100 68.4595 100 64.797V6.63158C100 2.96906 97.0309 0 93.3684 0Z" fill="white"/>
<path fill-rule="evenodd" clip-rule="evenodd" d="M16.2171 42.4151L19.6109 46.6177H11.2086L16.2171 42.4151ZM15.1499 41.1169L8.57728 46.6305L8.57458 33.0703L15.1499 41.1169ZM30.9643 27.4626C30.9643 27.4626 29.5215 26.7795 27.8452 26.8793C25.9288 26.9921 24.3256 27.7271 23.404 28.6968C22.824 29.3061 22.1829 30.0493 21.8608 30.8564C21.3938 32.0241 21.2941 33.567 21.2941 33.567C21.2941 33.567 20.6239 32.9981 19.7841 31.3405C18.8078 29.4125 18.5407 28.2446 18.4084 26.9122C18.2906 25.7429 18.4755 24.5867 18.4755 24.5867H30.9643V27.4626ZM30.9643 31.3068V39.857C30.9643 39.857 30.1879 40.1552 29.5546 40.1552C28.9213 40.1552 27.8428 40.0613 26.5902 39.3726C25.3467 38.6896 24.6585 37.8632 24.1249 37.1143C23.5837 36.3527 23.1369 35.2968 23.004 34.5359C22.8973 33.9272 22.7822 32.4089 23.404 31.1749C23.7414 30.5053 24.6469 29.3574 26.3902 29.2921C27.8113 29.2376 28.5992 29.6112 29.3215 30.0076C30.6959 30.7634 30.9643 31.3068 30.9643 31.3068ZM17.3654 39.2566L19.6181 37.3788C18.9002 36.4618 18.7105 36.1162 17.9079 34.9323C17.0862 33.7205 16.398 32.3873 15.8094 30.823C15.1723 29.1285 15.0184 28.1772 15.0888 26.9122C15.1769 25.3027 15.5429 24.5867 15.5429 24.5867H8.57135L8.57458 28.3441C8.57458 28.3441 13.9111 35.0318 17.3654 39.2566ZM23.802 46.6115H30.9643V41.3892C30.9643 41.3892 29.1878 42.2041 28.033 42.2698C27.3456 42.31 26.6783 42.3364 25.6017 42.05C24.4049 41.732 23.7249 41.422 22.6157 40.5071C21.7248 39.7733 20.7061 38.6896 20.7061 38.6896L18.4402 40.5788C19.4915 41.8647 20.2679 42.8007 20.5056 43.0527C21.5275 44.1326 21.9606 44.5295 22.6488 44.9143C23.3369 45.3 25.6356 45.2791 25.6356 45.2791L23.802 46.6115Z" fill="#E94E0F"/>
<path fill-rule="evenodd" clip-rule="evenodd" d="M85.1328 41.9661C85.1328 43.4793 85.3368 45.9665 83.6423 46.572V46.6728H90.0783V46.572C88.3848 45.9334 88.588 43.4793 88.588 41.9661V29.2928C88.588 27.7804 88.3848 25.2926 90.0783 24.654V24.5531H83.6423V24.654C85.37 25.2926 85.1328 27.7467 85.1328 29.2928V41.9661ZM61.5331 29.2928L73.1523 43.9163C74.6423 45.832 75.693 46.9419 78.098 47.7482V28.8895C78.098 27.0072 78.098 25.6622 79.8599 24.654V24.5531H73.8974V24.654C75.693 25.6622 75.6585 27.0072 75.6585 28.8895V41.6302L63.2611 26.0992L62.7862 25.4269C62.5496 25.1581 62.4143 24.9901 62.2788 24.5868V24.5531H57.3322V24.654C59.0939 25.6622 59.0939 27.0072 59.0939 28.8895V42.3031C59.0939 44.1851 59.0939 45.5295 57.2991 46.572V46.6728H63.295V46.572C61.4994 45.5295 61.5331 44.1851 61.5331 42.3031V29.2928ZM42.5934 33.4617V26.8729L44.8625 26.6371C46.8953 26.4354 49.0628 27.6458 49.0628 29.9657C49.0628 32.7222 45.9125 33.4617 43.7112 33.4617H42.5934ZM42.5934 43.9834V35.6799L44.9641 35.5456C47.9452 35.3774 51.1293 36.7897 51.1293 40.0504C51.1293 43.244 48.3185 44.5213 45.54 44.2525L42.5934 43.9834ZM39.1377 41.9327C39.1377 43.4793 39.3412 45.9334 37.6469 46.572V46.6728H43.2364C45.7769 46.6728 48.4538 46.7739 50.8245 45.6309C53.0942 44.555 54.8898 42.336 54.8898 39.7474C54.8898 36.4536 52.4164 34.4362 49.3676 33.797C51.2988 32.957 52.7549 31.6797 52.7549 29.4273C52.7549 26.4354 50.1473 24.5531 45.6761 24.5531H37.6469V24.654C39.3754 25.2926 39.1377 27.7467 39.1377 29.2591V41.9327Z" fill="#005B6A"/>
</g>
<mask id="mask2" mask-type="alpha" maskUnits="userSpaceOnUse" x="230" y="1" width="100" height="72">
<path d="M323.368 1H236.632C232.969 1 230 3.96906 230 7.63158V65.797C230 69.4595 232.969 72.4286 236.632 72.4286H323.368C327.031 72.4286 330 69.4595 330 65.797V7.63158C330 3.96906 327.031 1 323.368 1Z" fill="white"/>
</mask>
<g mask="url(#mask2)">
<path d="M323.368 1H236.632C232.969 1 230 3.96906 230 7.63158V65.797C230 69.4595 232.969 72.4286 236.632 72.4286H323.368C327.031 72.4286 330 69.4595 330 65.797V7.63158C330 3.96906 327.031 1 323.368 1Z" fill="#00529C"/>
<path fill-rule="evenodd" clip-rule="evenodd" d="M230 63.5063C230 63.5063 228.95 66 246.429 66C285.714 66 330.003 51.7143 330.003 51.7143V75.2984H229.283L230 63.5063Z" fill="white"/>
<path fill-rule="evenodd" clip-rule="evenodd" d="M230 63.8571C230 63.8571 210.988 67.4955 230 68.1429C272.143 69.5778 330.003 62.4286 330.003 62.4286V78.1555H229.283L230 63.8571Z" fill="url(#paint1_linear)"/>
<path fill-rule="evenodd" clip-rule="evenodd" d="M259.645 31.9871H264.411C266.341 31.9871 267.78 32.841 267.78 34.6388C267.78 35.9568 267.113 36.6909 265.954 37.0798V37.1094C267.335 37.3948 268.048 38.1439 268.048 39.4164C268.048 41.9185 265.865 42.4424 264.009 42.4424H259.645V31.9871ZM262.405 36.1214H263.178C264.084 36.1214 265.019 35.8967 265.019 35.0122C265.019 34.0547 264.128 33.964 263.207 33.964H262.405V36.1214ZM262.405 40.4655H263.223C264.232 40.4655 265.286 40.3155 265.286 39.2518C265.286 38.1143 264.202 38.0085 263.252 38.0085H262.405V40.4655Z" fill="white"/>
<path fill-rule="evenodd" clip-rule="evenodd" d="M271.672 31.9871H275.057L279.051 42.4424H276.022L275.25 40.2111H271.361L270.544 42.4424H267.738L271.672 31.9871ZM273.365 34.1445H273.334L271.999 38.2342H274.597L273.365 34.1445Z" fill="white"/>
<path fill-rule="evenodd" clip-rule="evenodd" d="M279.435 31.9871H282.954L286.458 39.0877H286.487L286.443 31.9871H288.968V42.4424H285.538L281.914 35.2976H281.886L281.974 42.4424H279.435V31.9871Z" fill="white"/>
<path fill-rule="evenodd" clip-rule="evenodd" d="M289.905 31.9871H292.666V36.2573H292.696L295.812 31.9871H299.139L295.308 36.855L299.436 42.4424H295.916L292.696 37.6944H292.666V42.4424H289.905V31.9871Z" fill="white"/>
<path fill-rule="evenodd" clip-rule="evenodd" d="M302.86 31.9871H307.626C309.556 31.9871 310.996 32.841 310.996 34.6388C310.996 35.9568 310.329 36.6909 309.171 37.0798V37.1094C310.551 37.3948 311.264 38.1439 311.264 39.4164C311.264 41.9185 309.081 42.4424 307.226 42.4424H302.86V31.9871ZM305.622 36.1214H306.393C307.299 36.1214 308.234 35.8967 308.234 35.0122C308.234 34.0547 307.344 33.964 306.424 33.964H305.622V36.1214ZM305.622 40.4655H306.439C307.447 40.4655 308.502 40.3155 308.502 39.2518C308.502 38.1143 307.419 38.0085 306.468 38.0085H305.622V40.4655Z" fill="white"/>
<path fill-rule="evenodd" clip-rule="evenodd" d="M311.876 31.9871H316.805C318.645 31.9871 320.146 32.8255 320.146 34.6242C320.146 36.017 319.492 36.9457 318.156 37.2599V37.2895C319.045 37.5298 319.106 38.3231 319.626 39.5965L320.636 42.4424H317.756L317.161 40.5562C316.597 38.7585 316.24 38.3081 315.216 38.3081H314.637V42.4424H311.876V31.9871ZM314.637 36.3312H315.365C316.255 36.3312 317.384 36.3006 317.384 35.1175C317.384 34.1445 316.418 33.964 315.365 33.964H314.637V36.3312Z" fill="white"/>
<mask id="mask3" mask-type="alpha" maskUnits="userSpaceOnUse" x="235" y="26" width="90" height="22">
<path d="M235.714 47.7226H324.157V26.7144H235.714V47.7226Z" fill="white"/>
</mask>
<g mask="url(#mask3)">
<path fill-rule="evenodd" clip-rule="evenodd" d="M321.396 42.4425H324.157V31.9872H321.396V42.4425Z" fill="white"/>
<path fill-rule="evenodd" clip-rule="evenodd" d="M253.343 26.7143H238.891C237.136 26.7143 235.714 28.1847 235.714 29.9988V30.0334V44.4389C235.714 46.2353 237.11 47.6956 238.842 47.7225H253.335C255.09 47.7225 256.513 46.2521 256.513 44.4389L256.519 29.9988C256.519 28.1847 255.098 26.7143 253.343 26.7143ZM240.609 46.0392L239.82 46.0479C238.866 46.0479 238.092 45.2568 238.092 44.2807L238.088 44.1416V30.8058L238.093 30.0877C238.128 29.143 238.84 28.3825 239.771 28.3825H241.374C242.827 28.3825 244.005 29.6568 244.005 31.1605C244.005 31.9036 243.716 32.5784 243.248 33.069L239.159 37.2558L242.992 41.1936C243.486 41.7074 243.785 42.3831 243.785 43.1231C243.785 44.7339 242.363 46.0392 240.609 46.0392ZM252.392 46.026L245.246 46.0228C245.246 46.0228 246.073 44.221 246.073 43.1058C246.073 41.7462 245.622 40.5312 244.916 39.7274L242.472 37.2134L244.967 34.6128C245.709 33.9084 246.203 32.6582 246.203 31.2343C246.203 30.1068 245.894 29.1079 245.396 28.3825H247.128C248.581 28.3825 249.759 29.6568 249.759 31.1605C249.759 31.9036 249.47 32.5784 249.003 33.069L244.991 37.212L253.323 45.7839C253.059 45.9517 252.726 46.026 252.392 46.026ZM254.138 43.3497L248.167 37.2102L251.01 34.2941C251.59 33.5641 251.957 32.464 251.957 31.2343C251.957 30.0995 251.643 29.0764 251.141 28.3506L252.414 28.3889C253.368 28.3889 254.142 29.1813 254.142 30.157L254.138 43.3497Z" fill="white"/>
</g>
</g>
<defs>
<linearGradient id="paint0_linear" x1="155.279" y1="26.7557" x2="207.738" y2="26.7557" gradientUnits="userSpaceOnUse">
<stop stop-color="#FFCA06"/>
<stop offset="0.330844" stop-color="#FBAA18"/>
<stop offset="0.694742" stop-color="#FFC907"/>
<stop offset="1" stop-color="#FAA619"/>
</linearGradient>
<linearGradient id="paint1_linear" x1="221.55" y1="62.4286" x2="330.003" y2="62.4286" gradientUnits="userSpaceOnUse">
<stop stop-color="#FF730A"/>
<stop offset="0.188325" stop-color="#F66F0A"/>
<stop offset="1" stop-color="#FF7A18"/>
</linearGradient>
</defs>
</svg>
