<?xml version="1.0" encoding="utf-8"?>
<!-- Generator: Adobe Illustrator 19.0.0, SVG Export Plug-In . SVG Version: 6.00 Build 0)  -->
<svg version="1.1" id="Layer_1" xmlns="http://www.w3.org/2000/svg" xmlns:xlink="http://www.w3.org/1999/xlink" x="0px" y="0px"
	 viewBox="396 -77.2 793.4 155.2" style="enable-background:new 396 -77.2 793.4 155.2;" xml:space="preserve">
<style type="text/css">
	.st0{fill:#5EA8DC;}
</style>
<g id="XMLID_2_">
	<path id="XMLID_32_" class="st0" d="M779.1-41c6.9-0.1,12.5,5.5,12.5,12.3c0,3.8-1.6,7.2-4.3,9.5c12.8,4,27,14.3,32.2,19.4
		c10.1,9.9-11.5-1.3-14.8-1.3c-9.1,0.1,5.4,10.9,10.6,13.3c6.7,3.3,24.6,24.1,23.2,23.7c-11-5.2-24.9-10.8-35.5-15.9
		c-5.8-2.8-13.3,9.7-15.6,14.5c-5.6,12-6.9,27.8-9,13.9c-1.5-8.6,1.3-19.1,1.2-26.8c-0.1-10.5,0.3-14.8-5-25.3
		c-6.2-12.6-30.8-10.3-38.1-30.1l-5.9,5.7l-1-11.2l-9.9-5.3l9.4-4.1c-0.7-1.5-0.6-2.1,1-0.6l2-10.9l7.4,8.5l11.2-1.5l-5.8,9.7
		l4.9,10.1l-6.8-1.5c7.3,8.2,15.7,15.5,27.9,15.6c-2.4-2.2-4-5.5-4-9C766.7-35.3,772.2-40.9,779.1-41L779.1-41z M740.2-18.2
		l-0.8,4.2l-3.9,1.7l3.8,2l0.4,4.3l3.1-3l4.2,0.9l-1.9-3.8l2.2-3.7l-4.2,0.6L740.2-18.2L740.2-18.2z M813.8-50.6l-1.4,8l-7.4,3.2
		l7.1,3.8l0.7,8.1l5.8-5.6l7.9,1.8l-3.5-7.3l4.1-7l-8,1.1L813.8-50.6L813.8-50.6z M752,7.5l-1.4,8l-7.4,3.2l7.1,3.8l0.7,8.1l5.8-5.6
		l7.9,1.8l-3.5-7.3l4.1-7l-8,1.1L752,7.5L752,7.5z M764-57.3l-0.9,5.1l-4.8,2l4.6,2.4l0.5,5.2l3.7-3.6l5,1.1l-2.3-4.7l2.6-4.4
		l-5.1,0.7L764-57.3z"/>
	<path id="XMLID_18_" class="st0" d="M448,34.8h-6.4V18.1h-18.1v16.7h-6.4V-3.6h6.4v16.1h18.1V-3.6h6.4V34.8L448,34.8z M473.3,35.4
		c-5.5,0-10-1.8-13.3-5.4s-5-8.3-5-14c0-6.2,1.7-11.1,5.1-14.8c3.4-3.7,8-5.5,13.8-5.5c5.4,0,9.7,1.8,13,5.4c3.3,3.6,4.9,8.2,4.9,14
		c0,6.3-1.7,11.2-5.1,14.9C483.5,33.6,479,35.4,473.3,35.4L473.3,35.4z M473.6,1.3c-3.5,0-6.4,1.3-8.6,3.9s-3.3,6.1-3.3,10.4
		s1.1,7.7,3.2,10.3c2.1,2.6,4.9,3.9,8.4,3.9c3.7,0,6.6-1.2,8.7-3.7c2.1-2.5,3.2-6,3.2-10.4c0-4.6-1-8.1-3.1-10.6
		C480.1,2.6,477.2,1.3,473.6,1.3L473.6,1.3z M497.2,33.3v-6.6c0.6,0.5,1.3,1,2.1,1.4c0.8,0.4,1.7,0.8,2.6,1.1
		c0.9,0.3,1.8,0.5,2.7,0.7c0.9,0.2,1.7,0.2,2.5,0.2c2.7,0,4.7-0.4,6-1.3c1.3-0.9,2-2.2,2-3.9c0-0.9-0.2-1.7-0.7-2.4
		c-0.4-0.7-1-1.3-1.8-1.8c-0.8-0.6-1.7-1.1-2.8-1.6s-2.2-1.1-3.4-1.6c-1.3-0.7-2.5-1.4-3.6-2.1s-2.1-1.5-2.9-2.4
		c-0.8-0.9-1.5-1.8-2-2.9s-0.7-2.4-0.7-3.8c0-1.8,0.4-3.4,1.2-4.7c0.8-1.3,1.9-2.4,3.2-3.3c1.3-0.9,2.8-1.5,4.5-1.9
		c1.7-0.4,3.4-0.6,5.2-0.6c4,0,6.9,0.5,8.8,1.4v6.3c-2.2-1.6-5-2.4-8.4-2.4c-0.9,0-1.9,0.1-2.8,0.3c-0.9,0.2-1.8,0.5-2.5,0.9
		c-0.7,0.4-1.3,0.9-1.8,1.6c-0.5,0.6-0.7,1.4-0.7,2.3s0.2,1.6,0.5,2.2c0.4,0.6,0.9,1.2,1.6,1.7c0.7,0.5,1.5,1,2.5,1.5s2.1,1,3.4,1.6
		c1.3,0.7,2.6,1.4,3.8,2.2c1.2,0.8,2.2,1.6,3.1,2.6c0.9,0.9,1.6,2,2.1,3.1s0.8,2.4,0.8,3.9c0,1.9-0.4,3.6-1.2,4.9
		c-0.8,1.3-1.8,2.4-3.2,3.3c-1.3,0.8-2.9,1.4-4.6,1.8c-1.7,0.4-3.6,0.6-5.5,0.6c-0.6,0-1.4,0-2.4-0.1c-0.9-0.1-1.9-0.2-2.9-0.4
		c-1-0.2-1.9-0.4-2.8-0.7C498.4,33.9,497.7,33.6,497.2,33.3L497.2,33.3z M559.7,34.8h-6.4V18.1h-18.1v16.7h-6.4V-3.6h6.4v16.1h18.1
		V-3.6h6.4V34.8L559.7,34.8z M575.5-3.6v38.4h-6.4V-3.6H575.5L575.5-3.6z M611.2-0.8l-21.1,30.2H611v5.4h-29.7v-2.9l21.1-30.1h-19.5
		v-5.4h28.3V-0.8L611.2-0.8z M633.1,35.4c-5.5,0-10-1.8-13.3-5.4s-5-8.3-5-14c0-6.2,1.7-11.1,5.1-14.8c3.4-3.7,8-5.5,13.8-5.5
		c5.4,0,9.7,1.8,13,5.4s4.9,8.2,4.9,14c0,6.3-1.7,11.2-5.1,14.9C643.2,33.6,638.7,35.4,633.1,35.4L633.1,35.4z M633.3,1.3
		c-3.5,0-6.4,1.3-8.6,3.9s-3.3,6.1-3.3,10.4s1.1,7.7,3.2,10.3c2.1,2.6,4.9,3.9,8.4,3.9c3.7,0,6.6-1.2,8.7-3.7
		c2.1-2.5,3.2-6,3.2-10.4c0-4.6-1-8.1-3.1-10.6C639.8,2.6,637,1.3,633.3,1.3L633.3,1.3z M688.4,34.8h-7.5l-6.1-10.3
		c-0.5-0.9-1.1-1.8-1.6-2.4c-0.5-0.7-1.1-1.2-1.6-1.6s-1.1-0.7-1.8-0.9c-0.6-0.2-1.4-0.3-2.2-0.3H665v15.5h-6.3V-3.6h12.6
		c1.8,0,3.5,0.2,5,0.6s2.8,1.1,4,1.9c1.1,0.9,2,1.9,2.6,3.2c0.6,1.3,1,2.8,1,4.5c0,1.4-0.2,2.6-0.6,3.7c-0.4,1.1-1,2.1-1.7,3
		c-0.7,0.9-1.6,1.6-2.7,2.3c-1,0.6-2.2,1.1-3.5,1.5v0.1c0.7,0.4,1.3,0.8,1.8,1.3s1,1,1.5,1.5s0.9,1.1,1.4,1.7s1,1.4,1.5,2.2
		L688.4,34.8L688.4,34.8z M665,1.5V14h5.3c1,0,1.9-0.2,2.7-0.5c0.8-0.3,1.6-0.7,2.2-1.3c0.6-0.6,1.1-1.3,1.4-2.1
		c0.3-0.8,0.5-1.7,0.5-2.8c0-1.8-0.6-3.3-1.7-4.3c-1.2-1-2.8-1.6-5-1.6H665V1.5z M724.4,34.8h-7l-3.5-9.8h-15.1l-3.3,9.8h-7
		l14.4-38.4h7.2L724.4,34.8L724.4,34.8z M712.3,19.8L707,4.5c-0.2-0.5-0.3-1.3-0.5-2.4h-0.1c-0.2,1-0.3,1.8-0.5,2.4l-5.4,15.3H712.3
		z"/>
	<path id="XMLID_3_" class="st0" d="M867-0.4v14.5h13.3v3.2H867v17.5h-3.4V-3.6h17.8v3.3L867-0.4L867-0.4z M903.3,35.4
		c-2.6,0-5-0.5-7.1-1.5c-2.1-1-3.9-2.4-5.4-4.1s-2.6-3.8-3.4-6.2c-0.8-2.4-1.2-4.9-1.2-7.6c0-3,0.4-5.7,1.2-8.2
		c0.8-2.5,1.9-4.6,3.5-6.4c1.5-1.8,3.4-3.2,5.6-4.2s4.7-1.5,7.5-1.5c2.6,0,4.9,0.5,7,1.5s3.8,2.3,5.2,4.1c1.4,1.7,2.6,3.8,3.3,6.1
		c0.8,2.4,1.2,4.9,1.2,7.7c0,2.9-0.4,5.6-1.1,8.1c-0.8,2.5-1.9,4.6-3.3,6.5c-1.5,1.8-3.3,3.2-5.4,4.3
		C908.6,34.9,906.1,35.4,903.3,35.4L903.3,35.4z M903.6-1c-2.2,0-4.2,0.4-5.9,1.3s-3.1,2.1-4.3,3.6c-1.2,1.5-2.1,3.3-2.7,5.3
		s-0.9,4.2-0.9,6.5c0,2.2,0.3,4.3,0.8,6.3c0.6,2,1.4,3.7,2.5,5.3c1.1,1.5,2.5,2.8,4.2,3.7c1.7,0.9,3.7,1.4,6,1.4
		c2.3,0,4.3-0.4,6-1.2c1.7-0.8,3.2-2,4.3-3.5s2-3.2,2.6-5.3c0.6-2,0.9-4.3,0.9-6.7c0-2.2-0.3-4.4-0.8-6.4S915,5.5,913.9,4
		c-1.1-1.5-2.5-2.7-4.2-3.6C908-0.6,906-1,903.6-1L903.6-1z M953.8,19.3c0,10.7-4.5,16.1-13.5,16.1c-8.5,0-12.8-5.2-12.8-15.5V-3.6
		h3.4v23.2c0,4.2,0.8,7.4,2.4,9.5c1.6,2.1,4.1,3.1,7.5,3.1c6.4,0,9.6-4.1,9.6-12.2V-3.6h3.4L953.8,19.3L953.8,19.3z M987.8,34.8
		L967.5,4c-0.3-0.4-0.5-0.8-0.8-1.2c-0.2-0.4-0.4-0.8-0.6-1.2H966c0,0.3,0.1,0.8,0.1,1.3c0,0.6,0,1.3,0,2.1v29.8h-3.4V-3.6h3.8
		l19.9,30.5c0.3,0.5,0.6,0.9,0.8,1.4c0.2,0.4,0.5,0.8,0.7,1.2h0.1c-0.1-0.6-0.1-1.2-0.2-2c0-0.7,0-1.5,0-2.4V-3.6h3.4v38.4H987.8
		L987.8,34.8z M1000.8,34.8V-3.6h9.6c6.3,0,11,1.6,14.2,4.7c3.2,3.2,4.8,7.8,4.8,14c0,3-0.4,5.7-1.3,8.1s-2.2,4.5-3.9,6.2
		c-1.7,1.7-3.7,3.1-6.1,4c-2.4,0.9-5.1,1.4-8.1,1.4L1000.8,34.8L1000.8,34.8z M1004.2-0.4v31.9h5.6c2.5,0,4.8-0.4,6.7-1.1
		c2-0.7,3.7-1.8,5-3.1c1.4-1.4,2.4-3.1,3.1-5.1c0.7-2,1.1-4.4,1.1-7c0-10.3-5.2-15.5-15.6-15.5h-5.9V-0.4z M1059.1,34.8l-4-11.4
		h-15.7l-3.9,11.4h-3.8l13.9-38.4h3.4l13.8,38.4H1059.1L1059.1,34.8z M1048,3.1c-0.1-0.3-0.2-0.7-0.4-1.2c-0.1-0.4-0.2-0.9-0.3-1.5
		h-0.1c-0.1,0.6-0.2,1.1-0.3,1.5s-0.3,0.8-0.4,1.2l-5.9,17.1h13.4L1048,3.1L1048,3.1z M1073.4-0.4h10.5v-3.3h-24.5v3.3h10.6v35.2
		h3.4V-0.4L1073.4-0.4z M1093.3-3.6v38.4h-3.4V-3.6H1093.3L1093.3-3.6z M1117.7,35.4c-2.6,0-5-0.5-7.1-1.5c-2.1-1-3.9-2.4-5.4-4.1
		s-2.6-3.8-3.4-6.2c-0.8-2.4-1.2-4.9-1.2-7.6c0-3,0.4-5.7,1.2-8.2c0.8-2.5,1.9-4.6,3.5-6.4c1.5-1.8,3.4-3.2,5.6-4.2
		c2.2-1,4.7-1.5,7.5-1.5c2.6,0,4.9,0.5,7,1.5c2.1,1,3.8,2.3,5.2,4.1c1.4,1.7,2.6,3.8,3.3,6.1c0.8,2.4,1.2,4.9,1.2,7.7
		c0,2.9-0.4,5.6-1.1,8.1c-0.8,2.5-1.9,4.6-3.3,6.5c-1.5,1.8-3.3,3.2-5.4,4.3C1123,34.9,1120.5,35.4,1117.7,35.4L1117.7,35.4z
		 M1118-1c-2.2,0-4.2,0.4-5.9,1.3s-3.1,2.1-4.3,3.6c-1.2,1.5-2.1,3.3-2.7,5.3s-0.9,4.2-0.9,6.5c0,2.2,0.3,4.3,0.8,6.3
		c0.6,2,1.4,3.7,2.5,5.3c1.1,1.5,2.5,2.8,4.2,3.7c1.7,0.9,3.7,1.4,6,1.4s4.3-0.4,6-1.2c1.7-0.8,3.2-2,4.3-3.5c1.1-1.5,2-3.2,2.6-5.3
		c0.6-2,0.9-4.3,0.9-6.7c0-2.2-0.3-4.4-0.8-6.4s-1.3-3.8-2.4-5.3s-2.5-2.7-4.2-3.6C1122.4-0.6,1120.3-1,1118-1L1118-1z M1167.3,34.8
		L1147,4c-0.3-0.4-0.5-0.8-0.8-1.2c-0.2-0.4-0.4-0.8-0.6-1.2h-0.1c0,0.3,0.1,0.8,0.1,1.3c0,0.6,0,1.3,0,2.1v29.8h-3.4V-3.6h3.7
		l20.1,30.4c0.3,0.5,0.6,0.9,0.8,1.4c0.2,0.4,0.5,0.8,0.7,1.2h0.1c-0.1-0.6-0.1-1.2-0.2-2c0-0.7,0-1.5,0-2.4V-3.6h3.4v38.4H1167.3z"
		/>
</g>
</svg>
